<?xml version="1.0" encoding="UTF-8"?>
<svg id="Layer_2" data-name="Layer 2" xmlns="http://www.w3.org/2000/svg" viewBox="0 0 1254.66 1433.47">
  <defs>
    <style>
      .cls-1 {
        font-family: FONTSPRINGDEMO-MorphaBold, 'FONTSPRING DEMO - Morpha';
        font-size: 525.63px;
        font-weight: 700;
      }

      .cls-2 {
        fill: none;
        stroke: #000;
        stroke-miterlimit: 10;
        stroke-width: 15px;
      }

      .cls-3 {
        font-family: MicrosoftSansSerif, 'Microsoft Sans Serif';
        font-size: 124.5px;
        letter-spacing: .3em;
      }
    </style>
  </defs>
  <g id="Layer_3_copy_2" data-name="Layer 3 copy 2">
    <path d="M847.76,262.97s-9.98-31.01-37.85-70.89c-27.87-39.87-54.76-60.6-54.76-60.6,0,0-34.17,3.73-66.15,63.17-14.86,27.63-15.01,89.18-15.01,122.62,0,215.67-2.31,325.28-2.31,325.28l-12.58,11.43s-1.27-228.24,5.25-402.33c1.87-49.88,22.78-82.17,27.22-88.3,23.99-33.16,59.17-46.73,59.17-46.73,0,0-17.15-28.73-51.88-60.03-25.68-23.14-75.31-56.6-75.31-56.6,0,0-42.59,25.73-76.89,58.31-34.3,32.59-48.45,57.88-48.45,57.88,0,0,32.34,14.35,54.02,40.73,17.33,21.09,28.3,56.6,29.88,76.3,4.72,25.3,8.71,421.48,8.71,421.48l-12.4-12.65s-5.17-163.55-6.07-287.9c-.86-118.34-3.86-138.4-13.68-159.07-18.15-47.31-65.34-64.74-65.34-64.74,0,0-31.13,23.58-57.77,63.28-23.13,34.48-36.82,67.92-36.82,67.92l54.57,34.59s-50.71,92.32-38.28,238.53c5.63,66.21,39.63,164.32,85.32,213.52,55.2,59.44,102.81,63.6,123.2,63.6,20.39,0,54.13,1.15,105.76-43.45,41.57-35.92,80.65-107.8,95.18-185.65,32.59-174.5-25.89-289.98-25.89-289.98l49.16-29.73ZM756.74,652.27c-51.58,119.03-133.2,111.48-133.2,111.48,0,0-83.04,11.48-137.35-122-69.75-149.87,1.72-321.56,1.72-321.56,0,0,14.94,13.34,27.44,30.3,9.66,13.1,19.29,36.33,23.32,55.41,14.27,67.51,13.98,234.38,13.98,234.38l70.89,71.17,72.31-70.32s-1.75-180.43,16.44-240.34c6.02-19.84,13.45-37.91,20.15-49.88,12.01-21.44,29.87-32.16,29.87-32.16,0,0,72.46,153.45-5.57,333.52Z"/>
  </g>
  <g id="Layer_5" data-name="Layer 5">
    <text class="cls-1" transform="translate(0 1271.7)"><tspan x="0" y="0">NORD</tspan></text>
  </g>
  <g id="Layer_6_copy_2" data-name="Layer 6 copy 2">
    <text class="cls-3" transform="translate(244.31 1406.6)"><tspan x="0" y="0">FINANCE</tspan></text>
  </g>
  <g id="Layer_7" data-name="Layer 7">
    <line class="cls-2" x1="1039.52" y1="1365.15" x2="1227.43" y2="1365.15"/>
    <line class="cls-2" x1="32.16" y1="1365.15" x2="220.08" y2="1365.15"/>
  </g>
  <g id="Layer_3_copy_3" data-name="Layer 3 copy 3">
    <path d="M847.76,262.97s-9.98-31.01-37.85-70.89c-27.87-39.87-54.76-60.6-54.76-60.6,0,0-34.17,3.73-66.15,63.17-14.86,27.63-15.01,89.18-15.01,122.62,0,215.67-2.31,325.28-2.31,325.28l-12.58,11.43s-1.27-228.24,5.25-402.33c1.87-49.88,22.78-82.17,27.22-88.3,23.99-33.16,59.17-46.73,59.17-46.73,0,0-17.15-28.73-51.88-60.03-25.68-23.14-75.31-56.6-75.31-56.6,0,0-42.59,25.73-76.89,58.31-34.3,32.59-48.45,57.88-48.45,57.88,0,0,32.34,14.35,54.02,40.73,17.33,21.09,28.3,56.6,29.88,76.3,4.72,25.3,8.71,421.48,8.71,421.48l-12.4-12.65s-5.17-163.55-6.07-287.9c-.86-118.34-3.86-138.4-13.68-159.07-18.15-47.31-65.34-64.74-65.34-64.74,0,0-31.13,23.58-57.77,63.28-23.13,34.48-36.82,67.92-36.82,67.92l54.57,34.59s-50.71,92.32-38.28,238.53c5.63,66.21,39.63,164.32,85.32,213.52,55.2,59.44,102.81,63.6,123.2,63.6,20.39,0,54.13,1.15,105.76-43.45,41.57-35.92,80.65-107.8,95.18-185.65,32.59-174.5-25.89-289.98-25.89-289.98l49.16-29.73ZM756.74,652.27c-51.58,119.03-133.2,111.48-133.2,111.48,0,0-83.04,11.48-137.35-122-69.75-149.87,1.72-321.56,1.72-321.56,0,0,14.94,13.34,27.44,30.3,9.66,13.1,19.29,36.33,23.32,55.41,14.27,67.51,13.98,234.38,13.98,234.38l70.89,71.17,72.31-70.32s-1.75-180.43,16.44-240.34c6.02-19.84,13.45-37.91,20.15-49.88,12.01-21.44,29.87-32.16,29.87-32.16,0,0,72.46,153.45-5.57,333.52Z"/>
  </g>
  <g id="Layer_5_copy" data-name="Layer 5 copy">
    <text class="cls-1" transform="translate(0 1271.7)"><tspan x="0" y="0">NORD</tspan></text>
  </g>
  <g id="Layer_6_copy" data-name="Layer 6 copy">
    <text class="cls-3" transform="translate(244.31 1406.6)"><tspan x="0" y="0">FINANCE</tspan></text>
  </g>
  <g id="Layer_7_copy" data-name="Layer 7 copy">
    <line class="cls-2" x1="1039.52" y1="1365.15" x2="1227.43" y2="1365.15"/>
    <line class="cls-2" x1="32.16" y1="1365.15" x2="220.08" y2="1365.15"/>
  </g>
</svg>