<?xml version="1.0" encoding="UTF-8"?>
<svg id="Layer_2" data-name="Layer 2" xmlns="http://www.w3.org/2000/svg" viewBox="0 0 593.22 326">
  <defs>
    <style>
      .cls-1 {
        fill: none;
      }

      .cls-2 {
        fill: #706f6f;
      }
    </style>
  </defs>
  <g id="_ÎÓÈ_1" data-name="—ÎÓÈ_1">
    <rect class="cls-1" width="593.22" height="326"/>
    <g>
      <path class="cls-2" d="M573,224.34c-.51-2.07-2.27-3.59-4.42-3.83-.06-.01-.11-.02-.17-.03-.75-.07-1.43-.43-1.91-1.02-.48-.59-.7-1.34-.61-2.11,3.12-26.62,4.01-53.75,2.66-80.64-.21-4.13-.48-8.06-.7-11.01-.03-.47-.35-.86-.76-1.02-1.33-17.52-3.61-35.06-6.8-52.14-.37-1.97-1.04-3.85-1.98-5.63.18-.25.25-.55.21-.84l.04-.03-.06-.11c-.03-.11-.06-.21-.12-.31-2.97-4.98-7.91-8.48-13.54-9.6-1.05-.21-2.14-.34-3.33-.38-69.89-2.15-150.45-3.83-195.91-4.07-30.49-.18-88.82.48-120.06,1.34-5.74.15-20.75,1.08-36.19,6.45-.45.16-.74.56-.78,1.01-5.49,1.99-10.39,4.34-14.56,7-11.71,7.48-23.31,15.47-34.47,23.76-2.26,1.68-4.52,3.35-6.79,5.03-11.46,8.47-23.27,17.2-32.99,25.63l-1.62.61c-.14.05-.26.13-.37.22-.35.31-.81.53-1.32.63l-16.86,3.21c-.17.03-.35.08-.53.13l-.21.06c-8.66,3.05-17.02,7.02-24.84,11.79-7.46,4.57-16.79,10.87-22.71,19-5.38,7.39-6.36,14-7.01,21.26-.41,4.69-.27,9.61.42,14.61.05.42.02.78-.08,1.12-.09.33-.26.67-.48.97-1.06,1.32-1.93,2.75-2.65,4.35-1.48,3.38-2,7.15-1.52,11.2.32,2.78,1.09,5.66,2.3,8.53,1.02,2.53,2.36,5.03,3.96,7.41.39.58.86,1.05,1.44,1.44,3.13,2.09,6.26,4.19,9.39,6.26.31.21.63.37.93.49l12.1,4.9c.64.26,1.3.39,1.95.39h12.51l29.21,4.51c4.72,17.03,20.35,29.58,38.86,29.58s35.42-13.59,39.39-31.69l234.56,1.17,12.78-.79c4.11,17.91,20.17,31.31,39.3,31.31,20.85,0,38.06-15.91,40.12-36.23l6.65-.41c.21.31.44.61.72.87,1.03,1,2.39,1.52,3.83,1.45,9.56-.48,19.12-.96,28.67-1.44,9.37-.47,18.75-.94,28.12-1.41,1.49-.07,2.87-.78,3.78-1.92.86-1.05,2-2.8,2.52-5.2.55-2.42.26-4.52-.08-5.84ZM566.09,124.61l-1.63.02c-2.64-8.16-6.4-19.86-6.59-20.73h0c-.12-.91-.9-5.54-4.84-28.51-.65-3.79-1.21-7.03-1.63-9.46,1.59-.02,3.06.25,4.46.85.23.1.44.21.64.31l.13.07.1.16.09-.06.03.02c.19.09.39.12.58.11.89,1.69,1.53,3.47,1.88,5.33,3.17,17,5.44,34.45,6.78,51.88ZM554.09,63.8c-1.37-.25-2.8-.3-4.23-.12-.32.04-.61.21-.8.47-.19.26-.27.59-.21.91.43,2.51,1.07,6.24,1.85,10.74,1.77,10.31,4.74,27.58,4.83,28.3,0,.23,0,.66,6.96,22.1.16.49.61.82,1.12.82h.01l1.98-.02c.2,2.78.43,6.24.62,9.85,1.34,26.76.45,53.76-2.65,80.24-.16,1.4.23,2.78,1.12,3.87.03.04.07.07.1.1l-7.41.14c.27-6.41.6-16.4.69-28.49l.02-3.32c.02-2.53.04-5.15.04-7.88,0,0,0,0,0,0,.02-18.06-.34-40.02-3.13-65.92h0c-1.33-12.27-3.02-23.96-5.13-35.74,0,0,0,0,0,0-1.3-7.27-2.7-14.22-4.25-21.2,3.26.89,6.21,2.69,8.51,5.17ZM490.91,197.67s-.09-.07-.13-.1c-8.93-8.2-20.13-12.61-31.64-12.42-12.01.2-23.48,5.36-32.28,14.51-9.25,9.61-14.19,22.19-13.9,35.42.02.79-.27,1.54-.82,2.1-.53.54-1.23.84-1.98.84h-227.83c-1.55,0-2.81-1.28-2.81-2.85,0-.23-.01-.46-.02-.69l221.71-2.19c.32,0,.59-.25.63-.57.57-5.62,1.25-11.25,1.99-16.88,3.4-7.34,8.79-15.87,17.3-23.52,4.55-4.09,14.25-11.55,28.01-15.56,9.39-2.74,16.58-2.65,19.24-2.49,2.9.18,8.29.51,14.22,3.09,6.28,2.73,10.47,6.67,14.83,11.75,2.08,2.42,3.82,4.65,5.33,6.74.3.41.58.81.86,1.21,3.41,4.88,5.5,8.92,7.41,12.63,2.46,4.77,4.61,8.9,8.86,13.19l-14.45.27c-2.33-9.29-7.34-17.84-14.54-24.48ZM107.17,193.28h-.02s-.2-.28-.2-.28c-.13.09-.25.2-.38.29l-22.1.45c7.24-7.92,16.97-15.15,29.81-18.61,5.8-1.56,19.52-4.19,34.83.38.4,4.27.55,8.57.47,12.82-6.46-2.87-13.37-4.2-20.17-3.74-7.84.53-15.6,3.43-22.44,8.4l.2.28ZM51.84,237.02l14.15-11.16c.11-.09.19-.21.23-.35.3-1.03,4.93-16.49,17-30.37l21.54-.44c-11.95,9.74-18.91,24.65-18.74,40.44,0,.77-.29,1.49-.82,2.04-.53.53-1.23.82-1.97.82h-24.99l-6.39-.99ZM27.08,193.02c-.64-4.64-.77-9.18-.44-13.51.4.06.75.17,1.06.35,2.26,1.29,2.86,5.96,1.75,13.48l-2.35.44c0-.25.01-.49-.02-.77ZM28.38,178.68c-.48-.28-1.04-.45-1.65-.53.52-5.56,1.28-10.47,4.18-15.7h7.33c-2.98,3.44-4.58,6.43-4.81,8.03-.29,2.02-.19,3.11.33,3.64.21.21.49.33.78.33.05,0,.11,0,.16-.01,4.51-.6,9.07-1.47,13.55-2.59,11.94-2.98,23.87-7.83,35.55-14.45-3.8,3.84-7.44,7.84-10.84,12-4.71,5.77-9.09,11.92-13.01,18.28l-29.1,5.4c1.14-8.07.32-12.8-2.48-14.41ZM44.03,158.64s.09-.08.13-.12c2.75-2.35,6.12-4.74,10.16-6.88.04-.02,3.9-2.06,8.71-3.77,3.43-1.22,5.76-1.68,6.63-1.85.23-.04.37-.08.4-.09l18.7,4.93c.06.03.24.28.27.82.02.27-.02.52-.07.73-.34.32-.68.64-1.02.97-13.09,8.01-26.54,13.78-40,17.14-4.37,1.09-8.82,1.94-13.21,2.53-.06-.23-.13-.86.08-2.37.27-1.89,3.24-6.87,9.23-12.04h0ZM74.04,170.28c4.54-5.56,9.49-10.85,14.72-15.8.21-.13.42-.24.63-.37.35-.21.59-.55.75-.93.33-.3.64-.62.97-.91,18.01-1.77,36.12-3.47,54.25-5.14.44,5.54,1.12,11.49,2.2,17.41l.06.35c.18.98.45,2.46.74,4.35-3.78-.91-7.66-1.5-11.6-1.73-33.36-1.91-54.33,22.44-57.46,26.34l-3.98.08c-3.01.08-6.04-.76-8.64-2.42l-5.35-3.42c3.84-6.19,8.1-12.18,12.7-17.81ZM159.33,105.13c-.07-.89-.39-1.71-.91-2.38,6.22-5.28,12.57-10.44,18.96-15.37,7.89-6.08,16.73-10.57,26.3-13.34l-7.3,55.74-35.41,2.12c.21-.78.31-1.6.24-2.46l-1.89-24.31ZM160.59,132.94l36.27-2.17c.24-.01.44-.2.47-.44l7.45-56.93c.02-.17-.04-.34-.17-.45-.13-.11-.31-.15-.47-.11-9.98,2.79-19.19,7.4-27.38,13.72-6.43,4.96-12.81,10.15-19.06,15.45-.63-.5-1.36-.81-2.13-.88,6.51-5.56,13.19-11,19.94-16.2,13.86-10.69,30.57-16.62,48.33-17.14,10.08-.29,20.21-.56,30.37-.8.04,0,.08,0,.13,0,1.52,0,2.96.65,3.97,1.79,1.04,1.17,1.5,2.73,1.28,4.28l-4.54,31.23c-.75,5.19-3.65,9.89-7.95,12.89l-15.77,11.02c-2.63,1.84-5.71,2.91-8.91,3.1l-63.58,3.8c.29-.2.57-.42.82-.69.39-.42.69-.93.94-1.47ZM153.01,102.79l1.92-.16c.69-.06,1.38.16,1.92.62.58.49.93,1.2.99,1.99l1.89,24.31c.11,1.48-.33,2.92-1.18,3.84-.59.64-1.33.98-2.12.98h-2.49c-1.94,0-3.58-2.17-3.58-4.73v-.59h.01c1.57-.28,2.7-1.64,2.7-3.23v-3.39c0-.96-.42-1.87-1.15-2.5-.45-.38-.99-.62-1.56-.72v-13.38c0-1.56,1.19-2.94,2.66-3.06ZM125.88,132.13l8.33-9.21,15.25-2.46c.58-.09,1.17.07,1.61.45.45.38.7.93.7,1.52v3.39c0,.97-.69,1.8-1.65,1.97l-24.25,4.33ZM148.85,119.27l-3.21.52c0-3.35.07-6.71.18-10.07,1.01-.91,2.01-1.82,3.03-2.72v12.27ZM144.36,120l-10.79,1.74-11.14,12.31,22.07-3.94c.06,1.78.12,3.75.21,5.85l-27.76,1.66c8.81-9.22,18.07-18.14,27.56-26.71-.09,3.03-.14,6.07-.14,9.09ZM145.76,129.88l3.09-.55v.32c0,2.71,1.43,5,3.41,5.86l-6.28.38c-.09-2.16-.15-4.18-.21-6ZM222.49,132.58c3.43-.21,6.74-1.36,9.56-3.33l15.77-11.02c4.58-3.2,7.68-8.22,8.48-13.75l4.54-31.23c.28-1.92-.3-3.85-1.59-5.3-1.29-1.45-3.15-2.27-5.08-2.22-10.16.24-20.29.51-30.37.8-18.02.53-34.99,6.55-49.07,17.41-7.19,5.55-14.32,11.37-21.24,17.31l-.6.05c-2.07.17-3.71,1.86-3.98,3.95-1.01.89-2.01,1.8-3.02,2.7.08-1.92.17-3.84.29-5.75.74-.65,1.48-1.3,2.23-1.95,7.74-6.73,15.77-13.3,23.87-19.55,14.75-11.38,32.56-17.68,51.49-18.24,17-.5,34.12-.92,51.22-1.27l.42,73.51c-13.07,1.01-26.12,2.05-39.15,3.12-29.76,2.44-59.76,5.06-89.72,7.82-.22-2.98-.37-5.83-.49-8.48l76.46-4.57ZM413.14,64.15c-31.8-.08-63.6.08-95.18.51-10.43.14-21.36.32-33.4.55-2.86.05-5.19,2.43-5.19,5.3v49.9c0,2.27.91,4.37,2.56,5.93,1.53,1.44,3.49,2.22,5.57,2.22.17,0,.33,0,.5-.01l125.14-7.48v4.03c-45.56,2.84-91.13,6.01-136.48,9.52l-.42-73.44c13.93-.28,27.84-.53,41.66-.71,26.52-.36,53.39-.54,79.89-.54,5.11,0,10.22,0,15.35.02v4.21ZM413.14,120.03l-125.2,7.49c-1.98.12-3.87-.56-5.31-1.93-1.44-1.36-2.24-3.2-2.24-5.19v-49.9c0-2.32,1.88-4.24,4.19-4.28,12.04-.23,22.96-.41,33.39-.55,26.45-.35,53.05-.53,79.68-.53,5.16,0,10.32.02,15.48.04v54.86ZM414.41,65.18c33.32.09,66.65.45,99.73,1.09,5.02.1,9.2,3.78,9.94,8.76l2.84,19.09c.72,4.85-.64,9.82-3.73,13.63-3.09,3.81-7.67,6.16-12.57,6.45l-96.21,5.75v-54.78ZM550.18,89.44c.21,1.29.39,2.59.59,3.88.24,1.6.5,3.21.73,4.82.16,1.15.31,2.31.47,3.47.24,1.77.49,3.53.71,5.32.05.39.09.79.14,1.18.31,2.52.61,5.05.89,7.61,1.01,9.36,1.7,18.2,2.17,26.53,0,.03,0,.07,0,.1.07,1.33.14,2.64.21,3.95,0,.07,0,.14.01.21.06,1.29.12,2.56.17,3.83,0,.08,0,.16.01.23.05,1.26.1,2.5.14,3.73,0,.08,0,.16,0,.24.04,1.23.08,2.45.12,3.65,0,.08,0,.16,0,.23.03,1.22.06,2.43.09,3.62,0,.05,0,.1,0,.15.03,1.22.05,2.42.07,3.61,0,.02,0,.05,0,.07.08,4.87.11,9.51.11,13.93l-11.13-12.73c-.12-12.93-.63-26.04-1.51-38.97-.88-12.86-2.14-25.71-3.73-38.2,1.35-1.39,2.91-2.98,4.47-4.57,1.34-1.36,2.67-2.72,3.88-3.97.2,1.14.39,2.28.58,3.42.26,1.56.54,3.11.79,4.67ZM542.82,128.19c.88,12.96,1.39,26.11,1.51,39.07.04,4.89.03,9.27-.02,13.39-.03,2.61-1.84,4.86-4.39,5.46l-25.49,6,.39-.33c-21.26-24.9-53.64-34.25-80.57-23.28-12.12,4.94-20.67,13.07-26.53,20.92.24-1.38.46-2.78.71-4.15,1.74-9.56,3.75-19.22,5.96-28.71.01-.05.02-.1.02-.14v-30.03c42.67-2.66,85.31-5.03,127.73-7.08.24,2.96.47,5.92.68,8.89ZM277.22,232.23l-.04-7.63,122.89-1.4c.29,0,.55-.19.64-.47.37-1.13.8-2.33,1.29-3.58-.49,3.96-.95,7.92-1.36,11.87l-123.42,1.22ZM399.56,221.84l-122.4,1.4-.07-12.94,121.3-1.83c.28,0,.53-.18.63-.44,1.16-3.05,3.21-7.69,6.4-12.81.55-.88,1.13-1.77,1.75-2.68,5.75-8.36,14.55-17.45,27.58-22.76,26.26-10.7,57.83-1.63,78.71,22.56l-9.26,2.18c-1.6-2.24-3.47-4.65-5.74-7.29-3.88-4.52-8.42-9.12-15.32-12.12-6.15-2.67-11.7-3.01-14.68-3.2-2.73-.17-10.11-.26-19.71,2.54-14.02,4.09-23.89,11.69-28.54,15.85-7.3,6.55-12.34,13.74-15.83,20.31-.65,1.22-1.24,2.42-1.78,3.6-1.27,2.74-2.28,5.32-3.06,7.63ZM413.14,156.34c-2.21,9.49-4.22,19.15-5.96,28.7-.41,2.25-.78,4.51-1.16,6.77-4.12,6-6.68,11.63-8.11,15.28l-120.82,1.82-.41-72.93c45.34-3.51,90.91-6.68,136.47-9.52v29.88ZM236.35,139.19c12.99-1.06,26.01-2.1,39.04-3.11l.41,72.85-79.82,1.21c-8.58-20.26-25.98-35.2-46.29-40.56-.32-2.17-.63-3.85-.82-4.93l-.06-.35c-1.08-5.88-1.75-11.79-2.19-17.3,29.96-2.75,59.97-5.38,89.73-7.82ZM136.68,168.88c4.04.23,8.02.85,11.89,1.82.45.11.89.23,1.33.35,19.81,5.42,36.73,20.15,45,40.04.11.26.36.42.64.42h.01l80.27-1.21.07,12.94-84.27.96c-.66-7.5-2.73-14.61-6.15-21.15-5.76-11.01-14.87-19.57-27.1-25.43-2.72-1.31-5.42-2.35-8.08-3.18-.44-.14-.88-.27-1.31-.4-15.43-4.45-29.19-1.82-35.05-.24-13.64,3.68-23.85,11.51-31.32,19.97l-1.49.03c4.83-5.69,24.81-26.67,55.56-24.93ZM150.42,175.92c2.43.79,4.89,1.75,7.36,2.94,11.95,5.74,20.86,14.09,26.48,24.84,3.43,6.55,5.46,13.7,6.05,21.25.03.36.32.63.68.63h0l84.9-.97.04,7.63-96.47.95c-.49-13.53-6.34-26.47-16.26-35.77-3.76-3.52-7.95-6.38-12.37-8.5.11-4.31-.03-8.67-.42-13ZM521.06,221.11c-4.23-4.21-6.35-8.3-8.8-13.05-1.88-3.64-3.93-7.6-7.2-12.34l35.17-8.28c3.17-.75,5.41-3.54,5.45-6.78.05-3.62.05-7.46.03-11.64l11.12,12.72c0,2.64-.02,5.18-.04,7.63l-.02,3.32c-.1,12.12-.43,22.13-.7,28.52l-34.21.63c-.27-.25-.55-.48-.81-.73ZM544.21,58.31c1.58,7.04,2.99,14.05,4.3,21.37-1.38,1.42-2.97,3.05-4.57,4.68-1.65,1.68-3.3,3.37-4.7,4.82-.14.15-.21.36-.19.57,1.18,9.25,2.18,18.69,2.98,28.19-42.38,2.04-84.99,4.42-127.62,7.07v-4.03l96.27-5.76c5.18-.31,10.03-2.8,13.3-6.83,3.27-4.03,4.71-9.28,3.95-14.42l-2.84-19.09c-.81-5.47-5.41-9.52-10.93-9.63-33.09-.65-66.42-1.01-99.75-1.11v-9.29c39.63.74,85.24,1.86,127.03,3.14.99.04,1.89.14,2.77.31ZM345.6,53.93c17.97.1,41.43.42,67.53.9v3.83c-5.12-.01-10.24-.02-15.35-.02-26.5,0-53.38.18-79.9.54-13.82.18-27.73.43-41.65.71l-.03-5.56c25.39-.33,51.96-.5,69.4-.4ZM225.62,55.27c13.04-.36,30.82-.68,49.31-.92l.03,5.57c-17.11.35-34.24.77-51.25,1.27-19.2.56-37.26,6.96-52.23,18.5-8.12,6.26-16.17,12.85-23.92,19.59-.81.71-1.62,1.41-2.43,2.13-.13.11-.2.27-.21.44-.15,2.42-.26,4.85-.35,7.28-10.25,9.21-20.21,18.84-29.67,28.79-.18.19-.23.47-.12.71.11.23.33.37.58.37.01,0,.03,0,.04,0l29.36-1.76c.12,2.66.27,5.52.49,8.52-18.37,1.69-36.71,3.42-54.96,5.2-.19-.75-.6-1.28-1.18-1.43l-16.3-4.29c4.5-1.3,8.93-2.55,13.18-3.73,3.57-.99,7.04-1.93,10.41-2.83,5.42-1.45,9.86-6.05,11.07-11.57.43-1.97.7-3.99.87-6.01l14.66-5.51c.12-.05.23-.11.33-.19.18-.15,18.93-15.55,30.76-24.96l.31-.24c2.27-1.79,5.37-4.25,9.54-7.26,2.83-2.05,4.84-3.43,8.45-5.88,5.84-3.95,8.53-5.76,11.21-7.24,3.64-1.99,6.8-3.32,8.8-4.08.08-.03.16-.07.24-.12,1.38-.93,2.06-2.57,1.65-3.99-.12-.43-.33-.83-.63-1.18,13.83-4.25,26.75-5.03,31.94-5.17ZM133.37,96.98c2.27-1.67,4.54-3.35,6.79-5.03,11.14-8.28,22.72-16.26,34.41-23.72,4.11-2.63,8.95-4.95,14.38-6.91.31.3.76.42,1.19.28.47-.16.97-.13,1.37.09.27.14.46.35.52.57.1.36-.07.92-.59,1.32-2.08.8-5.28,2.15-8.96,4.16-2.78,1.53-5.5,3.36-11.4,7.35-3.32,2.26-5.55,3.78-8.51,5.92-4.22,3.04-7.34,5.52-9.63,7.33l-.31.25c-11.27,8.97-28.83,23.37-30.64,24.86l-19.43,7.31c9.27-7.84,20.19-15.92,30.81-23.77ZM99.19,124.54l7.74-2.91c-.17,1.75-.44,3.51-.83,5.29-1.08,4.91-5.12,9.1-10.05,10.41-3.37.9-6.85,1.84-10.42,2.83-4.99,1.38-10.21,2.86-15.51,4.4-.02,0-.05,0-.07,0-.13,0-.26.03-.36.06-.05.01-.14.03-.28.06-.9.18-3.3.65-6.83,1.91-4.91,1.75-8.86,3.83-8.9,3.85-.24.13-.47.27-.71.4,5.09-4.14,10.43-7.99,15.96-11.5,8.14-5.17,16.78-9.63,25.7-13.32l2.29-.44c.85-.16,1.63-.52,2.27-1.03ZM55.26,140.46c7.68-4.68,15.89-8.58,24.31-11.55l.14-.04c.12-.04.24-.07.35-.09l8.37-1.59c-6.99,3.2-13.78,6.87-20.25,10.97-8.94,5.68-17.39,12.23-25.1,19.48h0c-1.34,1.17-2.53,2.32-3.6,3.44h-7.76c.46-.74.95-1.48,1.5-2.24,4.43-6.09,11.22-11.75,22.03-18.38ZM23.68,200.72c.63-1.41,1.4-2.67,2.36-3.87.39-.53.66-1.08.82-1.62l2.34-.44c-.77,4.53-2.07,9.86-3.89,15.89-.61,2.09-1.2,3.98-1.71,5.54-.63-1.88-1.06-3.73-1.26-5.54-.42-3.63.03-6.99,1.34-9.97ZM38.39,232.63c-3.13-2.07-6.25-4.16-9.38-6.26-.32-.21-.57-.46-.79-.79-1.51-2.25-2.77-4.6-3.74-7-.04-.1-.07-.19-.11-.29.6-1.81,1.41-4.31,2.26-7.21,1.9-6.3,3.24-11.86,4.01-16.55l29.6-5.5,5.69,3.64c2.83,1.8,6.09,2.71,9.41,2.63l6.04-.12c-11.18,13.28-15.79,27.62-16.43,29.74l-15.21,12c-.1.08-.16.18-.2.29l-10.67-4.32c-.15-.06-.32-.15-.49-.26ZM132.65,272.07c-20.92,0-37.94-17.02-37.94-37.94s17.02-37.94,37.94-37.94,37.94,17.02,37.94,37.94-17.02,37.94-37.94,37.94ZM458.67,272.07c-20.92,0-37.94-17.02-37.94-37.94s17.02-37.94,37.94-37.94,37.94,17.02,37.94,37.94-17.02,37.94-37.94,37.94ZM498.9,236.86c.06-.9.1-1.81.1-2.73,0-22.24-18.09-40.33-40.33-40.33s-40.33,18.09-40.33,40.33c0,2.63.26,5.19.74,7.68l-12.53.78-234.25-1.17c.43-2.36.67-4.79.67-7.28,0-22.24-18.09-40.33-40.33-40.33s-40.33,18.09-40.33,40.33c0,3.21.39,6.32,1.1,9.31l-19.89-3.07h9.7c1.38,0,2.68-.54,3.65-1.52.99-.99,1.52-2.32,1.51-3.72-.18-15.98,7.29-31.01,19.96-40.21l-.69-.95v-.03s.71.98.71.98c6.48-4.71,13.81-7.46,21.21-7.96,11.27-.76,22.95,3.68,32.03,12.2,9.92,9.3,15.6,22.42,15.56,36.01,0,2.88,2.32,5.22,5.18,5.22h227.83c1.39,0,2.7-.55,3.67-1.55.99-1.02,1.52-2.37,1.49-3.8-.27-12.6,4.43-24.58,13.24-33.73,8.37-8.69,19.24-13.59,30.62-13.78,10.88-.2,21.61,4.05,30.11,11.9.04.04.08.07.13.1,9.84,9.13,15.36,22,15.15,35.33,0,.57.1,1.12.27,1.66l-5.94.37ZM570.77,229.66c-.43,1.95-1.34,3.37-2.05,4.23-.5.63-1.23,1-2.05,1.04-9.37.47-18.74.94-28.12,1.41-9.55.48-19.11.96-28.67,1.44-.37.02-.74-.04-1.08-.17-.36-.13-.7-.34-.98-.62-.2-.19-.36-.42-.49-.66-.25-.44-.39-.95-.39-1.47.06-3.85-.35-7.66-1.17-11.36l15.58-.29,2.01-.04,43.24-.8c.45.2.93.35,1.45.42.07.02.15.04.22.04,1.18.11,2.16.93,2.43,2.06.28,1.08.52,2.78.07,4.75Z"/>
      <path class="cls-2" d="M200.79,130.54s.02,0,.03,0l21.47-1.28c2.82-.17,5.53-1.11,7.85-2.73l15.77-11.02c3.83-2.68,6.42-6.87,7.09-11.5l4.54-31.23c.19-1.27-.39-2.17-.76-2.59-.36-.42-1.17-1.12-2.53-1.12-10.84.26-20.77.52-30.36.8-5.47.16-10.93.86-16.23,2.09-.21.05-.36.22-.39.43l-6.99,57.59c-.02.15.03.3.13.41.1.1.23.16.37.16ZM208.24,72.86c5.12-1.16,10.39-1.83,15.68-1.98,9.59-.28,19.52-.54,30.34-.8.89,0,1.44.42,1.74.77,0,0,0,0,0,0,.25.29.65.9.52,1.77l-4.54,31.23c-.64,4.35-3.07,8.29-6.67,10.81l-15.77,11.02c-2.16,1.51-4.7,2.39-7.33,2.55l-20.86,1.25,6.88-56.63Z"/>
      <path class="cls-2" d="M54.38,214.62c.01-2.89.02-6.18.02-9.03,0-2.59-.93-4.92-2.39-5.93-.8-.56-1.72-.69-2.59-.37-4.4,1.61-8.71,4.05-12.8,7.27-2.45,1.93-4.85,4.15-7.13,6.6-1.91,2.06-1.95,5.82-.9,8.12.65,1.42,1.65,2.2,2.83,2.2.03,0,.06,0,.1,0l17.85-.64c2.79-.1,4.99-3.71,5.01-8.22ZM31.47,222.28c-.9.05-1.53-.93-1.79-1.5-.88-1.92-.81-5.19.69-6.81,2.24-2.41,4.59-4.59,6.99-6.48,3.99-3.13,8.19-5.52,12.47-7.08.18-.07.36-.1.54-.1.32,0,.64.11.96.33,1.12.79,1.88,2.78,1.87,4.95h0c0,2.84-.01,6.13-.02,9.02-.01,3.74-1.78,6.95-3.86,7.03l-17.85.64Z"/>
      <path class="cls-2" d="M46.08,204.23h0c-2.23,0-3.4,3.89-3.4,7.74s1.17,7.74,3.4,7.74,3.4-3.9,3.4-7.74c0-1.97-.3-3.83-.84-5.24-.62-1.61-1.53-2.5-2.56-2.5ZM46.08,218.36c-.84,0-2.05-2.49-2.05-6.39s1.22-6.39,2.05-6.39c.31,0,.83.43,1.3,1.64.49,1.26.75,2.95.75,4.75,0,3.9-1.22,6.39-2.05,6.39Z"/>
      <path class="cls-2" d="M132.65,208.03c-14.39,0-26.1,11.71-26.1,26.1s11.71,26.1,26.1,26.1,26.1-11.71,26.1-26.1-11.71-26.1-26.1-26.1ZM132.65,259.08c-13.76,0-24.95-11.19-24.95-24.95s11.19-24.95,24.95-24.95,24.95,11.19,24.95,24.95-11.19,24.95-24.95,24.95Z"/>
      <path class="cls-2" d="M131.84,231.04c-.84.22-1.55.74-1.99,1.48-.45.74-.58,1.6-.36,2.43.21.83.75,1.52,1.5,1.95.5.29,1.06.43,1.62.43.28,0,.56-.04.84-.11,1.74-.45,2.79-2.2,2.35-3.91-.44-1.7-2.22-2.72-3.96-2.27ZM133.16,236.11c-.55.14-1.11.07-1.6-.21-.48-.27-.82-.71-.95-1.24h0c-.14-.53-.05-1.07.23-1.55.29-.48.75-.82,1.29-.96.18-.05.36-.07.54-.07.93,0,1.77.6,2.01,1.52.28,1.09-.4,2.21-1.52,2.5Z"/>
      <path class="cls-2" d="M121.68,219.11l6.32,4.75c.43.32.95.49,1.47.49.21,0,.42-.03.62-.08.73-.19,1.32-.69,1.63-1.38l3.22-7.22c.47-1.05.16-2.27-.76-2.96l-1.81-1.37c-.44-.33-1.01-.52-1.55-.5-.35,0-.73.03-1.12.06-.98.09-1.97.28-2.92.55-.97.22-1.92.54-2.82.94-.36.16-.69.32-1.01.49-.5.26-.89.68-1.12,1.19l-.92,2.08c-.46,1.05-.15,2.27.77,2.96ZM121.97,216.62l.92-2.08c.12-.27.33-.49.6-.64.29-.15.6-.3.93-.45.84-.37,1.73-.66,2.63-.87.01,0,.02,0,.03,0,.89-.26,1.8-.43,2.72-.52.36-.03.71-.05,1.04-.06h.03c.29,0,.57.09.8.27l1.81,1.37c.49.37.65,1.01.4,1.57l-3.22,7.22c-.16.36-.48.63-.86.73-.39.1-.79.02-1.11-.22l-6.32-4.75c-.49-.37-.65-1.01-.41-1.57Z"/>
      <path class="cls-2" d="M122.62,233.36c.04-.75-.25-1.47-.81-1.97l-5.88-5.27c-.86-.76-2.11-.84-3.05-.18l-1.86,1.3c-.45.32-.79.79-.95,1.33-.1.34-.2.7-.28,1.08-.21.96-.34,1.96-.37,2.95-.08.99-.07,1.99.03,2.97.04.39.09.76.15,1.11.1.55.38,1.06.79,1.43l1.7,1.51c.47.41,1.05.62,1.63.62.49,0,.99-.15,1.42-.45l6.45-4.56c.61-.43.99-1.11,1.04-1.86ZM120.92,234.28l-6.45,4.56c-.5.35-1.16.31-1.62-.09l-1.7-1.51c-.22-.2-.37-.46-.42-.76-.06-.32-.11-.67-.14-1.03-.1-.92-.1-1.85-.03-2.77,0-.01,0-.02,0-.03.03-.93.14-1.85.35-2.75.08-.35.17-.69.26-1,.09-.29.26-.54.51-.71l1.86-1.3c.23-.16.49-.24.75-.24.31,0,.62.11.87.33l5.88,5.27c.3.27.45.65.43,1.04-.02.4-.22.76-.55.99Z"/>
      <path class="cls-2" d="M130.14,244.85c-.21-.72-.73-1.3-1.42-1.59-.69-.28-1.47-.24-2.13.12l-6.9,3.84c-1,.56-1.48,1.72-1.17,2.82l.63,2.18c.15.53.49,1,.94,1.33.29.21.6.41.93.62.84.52,1.74.96,2.67,1.31.91.4,1.85.72,2.82.94.38.09.75.16,1.1.22.13.02.26.03.4.03.42,0,.84-.11,1.21-.31l1.98-1.11c1-.56,1.48-1.72,1.16-2.83l-2.2-7.59ZM130.62,254.26l-1.98,1.11c-.26.14-.56.2-.86.15-.33-.05-.67-.12-1.02-.2-.9-.21-1.78-.51-2.63-.88,0,0-.02,0-.03-.01-.86-.33-1.7-.74-2.48-1.22-.31-.19-.6-.38-.86-.57-.25-.18-.42-.42-.51-.71l-.63-2.18c-.17-.59.09-1.2.62-1.5l6.9-3.84c.2-.11.41-.17.63-.17.17,0,.34.03.5.1.37.15.64.46.75.84l2.2,7.59c.17.58-.08,1.2-.61,1.5Z"/>
      <path class="cls-2" d="M152.62,241.13c-.26-1.12-1.24-1.9-2.39-1.9h-7.9c-.75,0-1.45.35-1.92.93-.47.59-.64,1.35-.47,2.08l1.77,7.7c.26,1.12,1.24,1.9,2.39,1.9h2.27s0,0,0,0c.55,0,1.1-.19,1.54-.54.28-.22.56-.46.85-.72.73-.67,1.4-1.4,2-2.2.64-.76,1.2-1.58,1.69-2.44.19-.34.36-.67.51-.99.24-.51.3-1.08.18-1.62l-.52-2.21ZM151.92,244.47c-.14.3-.3.61-.48.92-.45.8-.98,1.57-1.58,2.28,0,0-.01.02-.02.02-.56.74-1.18,1.43-1.86,2.05-.27.24-.53.47-.79.67-.24.19-.52.29-.82.29h-2.27c-.61,0-1.13-.42-1.27-1.02l-1.77-7.7c-.09-.39,0-.79.25-1.1.25-.31.62-.49,1.02-.49h7.9c.61,0,1.13.41,1.27,1l.52,2.21c.07.29.04.59-.09.87Z"/>
      <path class="cls-2" d="M148.29,217.56l-2.26-.23c-1.14-.12-2.2.56-2.58,1.64l-2.57,7.47c-.24.71-.15,1.48.25,2.12s1.06,1.04,1.81,1.12l7.85.84c.09,0,.18.01.27.01,1.04,0,1.97-.65,2.32-1.65l.75-2.15c.18-.52.18-1.1,0-1.63-.12-.33-.25-.68-.4-1.04-.39-.91-.87-1.79-1.42-2.61-.51-.85-1.1-1.66-1.76-2.39-.26-.29-.52-.56-.77-.81-.4-.39-.93-.64-1.47-.69ZM151.31,222.07l.02.03c.52.77.96,1.58,1.33,2.43.14.33.27.66.37.97.1.29.1.59,0,.87l-.75,2.14c-.2.57-.76.93-1.37.87l-7.85-.84c-.4-.04-.75-.26-.96-.6-.21-.34-.26-.75-.13-1.12l2.57-7.47c.18-.53.68-.88,1.23-.88.05,0,.09,0,.14,0l2.26.23c.29.03.57.16.79.37.24.23.48.48.72.75.61.69,1.16,1.44,1.64,2.23Z"/>
      <path class="cls-2" d="M458.67,208.03c-14.39,0-26.1,11.71-26.1,26.1s11.71,26.1,26.1,26.1,26.1-11.71,26.1-26.1-11.71-26.1-26.1-26.1ZM458.67,259.08c-13.76,0-24.95-11.19-24.95-24.95s11.19-24.95,24.95-24.95,24.95,11.19,24.95,24.95-11.19,24.95-24.95,24.95Z"/>
      <path class="cls-2" d="M457.87,231.04c-.84.22-1.55.74-1.99,1.48-.45.74-.58,1.6-.36,2.43.21.83.75,1.52,1.5,1.95.5.29,1.06.43,1.62.43.28,0,.56-.04.84-.11,1.74-.45,2.79-2.2,2.35-3.91-.44-1.7-2.22-2.72-3.95-2.27ZM459.19,236.11c-.55.14-1.11.07-1.6-.21-.48-.27-.82-.71-.95-1.24h0c-.14-.53-.05-1.07.23-1.55.29-.48.75-.82,1.29-.96.18-.05.36-.07.54-.07.93,0,1.77.6,2.01,1.52.28,1.09-.4,2.21-1.52,2.5Z"/>
      <path class="cls-2" d="M447.71,219.11l6.32,4.75c.43.32.95.49,1.47.49.21,0,.41-.03.62-.08.73-.19,1.32-.69,1.63-1.38l3.22-7.22c.47-1.05.16-2.27-.76-2.96l-1.81-1.37c-.45-.34-.98-.52-1.55-.5-.35,0-.73.03-1.12.06-.98.09-1.97.28-2.92.55-.97.22-1.92.54-2.82.94-.36.16-.69.32-1.01.49-.5.26-.89.68-1.12,1.19l-.92,2.08c-.46,1.05-.15,2.27.77,2.96ZM448,216.62l.92-2.08c.12-.27.33-.49.6-.64.29-.15.6-.3.93-.45.84-.37,1.73-.66,2.63-.87.01,0,.02,0,.03,0,.89-.26,1.8-.43,2.72-.52.36-.03.71-.05,1.04-.06h.03c.29,0,.57.09.8.27l1.81,1.37c.49.37.65,1.01.4,1.57l-3.22,7.22c-.16.36-.48.63-.86.73-.39.1-.79.02-1.11-.22l-6.32-4.75c-.49-.37-.66-1.01-.41-1.57Z"/>
      <path class="cls-2" d="M448.65,233.36c.04-.75-.25-1.47-.81-1.97l-5.88-5.27c-.85-.76-2.11-.84-3.05-.18l-1.86,1.3c-.45.32-.79.79-.95,1.33-.1.34-.2.7-.28,1.08-.21.96-.34,1.96-.37,2.95-.08.99-.07,1.99.03,2.97.04.39.09.76.15,1.11.1.55.38,1.06.79,1.43l1.7,1.51c.47.41,1.05.62,1.63.62.49,0,.99-.15,1.42-.45l6.45-4.56c.61-.43.99-1.11,1.04-1.86ZM446.95,234.28l-6.45,4.56c-.49.35-1.16.32-1.62-.09l-1.69-1.51c-.22-.2-.37-.46-.42-.76-.06-.32-.11-.67-.14-1.03-.1-.92-.1-1.85-.03-2.77,0-.01,0-.02,0-.03.03-.92.14-1.85.34-2.75.08-.35.17-.69.26-1,.09-.29.27-.54.51-.71l1.86-1.3c.23-.16.49-.24.75-.24.31,0,.62.11.87.33l5.88,5.27c.3.27.45.65.43,1.05-.02.4-.22.76-.55.99Z"/>
      <path class="cls-2" d="M456.17,244.85c-.21-.72-.73-1.3-1.42-1.59-.69-.28-1.47-.24-2.13.12l-6.9,3.84c-1,.56-1.48,1.72-1.17,2.82l.63,2.18c.15.53.49,1,.94,1.33.29.21.6.41.93.62.84.52,1.74.96,2.67,1.31.91.4,1.85.72,2.82.94.38.09.75.16,1.1.22.13.02.26.03.39.03.42,0,.84-.11,1.21-.31l1.98-1.11c1-.56,1.48-1.72,1.16-2.83l-2.2-7.59ZM456.65,254.26l-1.98,1.11c-.26.15-.56.2-.86.15-.33-.05-.67-.12-1.02-.2-.9-.21-1.78-.51-2.63-.88,0,0-.02,0-.03-.01-.86-.33-1.7-.74-2.48-1.22-.31-.19-.6-.38-.86-.57-.25-.18-.42-.42-.51-.71l-.63-2.18c-.17-.59.09-1.2.62-1.5l6.9-3.84c.2-.11.41-.17.63-.17.17,0,.34.03.5.1.37.15.64.46.75.84l2.2,7.59c.17.58-.08,1.2-.61,1.5Z"/>
      <path class="cls-2" d="M478.65,241.13c-.26-1.12-1.24-1.9-2.39-1.9h-7.9c-.75,0-1.45.35-1.92.93-.47.59-.64,1.35-.47,2.08l1.77,7.7c.26,1.12,1.24,1.9,2.39,1.91h2.27s0,0,0,0c.55,0,1.1-.19,1.54-.54.28-.22.56-.46.85-.72.73-.66,1.4-1.4,2-2.2.64-.76,1.21-1.59,1.69-2.44.19-.34.36-.67.51-1,.24-.51.3-1.08.18-1.62l-.52-2.21ZM477.94,244.47c-.14.3-.3.61-.48.92-.45.8-.98,1.57-1.58,2.28,0,0-.01.02-.02.02-.56.74-1.19,1.43-1.87,2.05-.27.24-.53.47-.79.67-.24.19-.52.29-.82.29h-2.27c-.61,0-1.13-.42-1.27-1.02l-1.77-7.7c-.09-.39,0-.79.25-1.1s.62-.49,1.02-.49h7.9c.61,0,1.13.41,1.27,1l.52,2.21c.07.29.04.59-.09.87Z"/>
      <path class="cls-2" d="M474.32,217.56l-2.26-.23c-1.14-.12-2.2.56-2.58,1.64l-2.57,7.47c-.24.71-.15,1.48.25,2.12s1.06,1.04,1.81,1.12l7.85.84c.09,0,.18.01.27.01,1.04,0,1.97-.65,2.31-1.65l.75-2.15c.18-.52.18-1.1,0-1.63-.12-.34-.25-.68-.4-1.04-.39-.91-.87-1.79-1.42-2.61-.51-.85-1.1-1.66-1.76-2.39-.26-.29-.52-.56-.77-.81-.4-.39-.93-.64-1.47-.69ZM477.34,222.07l.02.03c.52.77.96,1.58,1.33,2.43.14.33.27.65.37.96.1.29.1.59,0,.87l-.75,2.15c-.2.57-.78.92-1.37.87l-7.85-.84c-.4-.04-.75-.26-.96-.6-.21-.34-.26-.75-.13-1.12l2.57-7.47c.18-.53.68-.88,1.23-.88.05,0,.09,0,.14,0l2.26.23c.29.03.57.16.79.37.24.23.48.48.72.75.61.69,1.16,1.44,1.64,2.23Z"/>
      <path class="cls-2" d="M243.62,145.46c1.37.13,2.96.2,4.68.2s3.48-.06,5.34-.19c3.76-.26,7.29-.75,9.93-1.39,4.05-.98,4.51-1.91,4.46-2.62s-.64-1.57-4.78-1.98c-2.7-.27-6.26-.27-10.02-.01-3.76.26-7.29.75-9.93,1.39-4.05.97-4.51,1.91-4.46,2.62.05.71.64,1.57,4.78,1.98ZM253.32,140.76c8.14-.56,12.62.22,13.38.81-.67.68-5,2.08-13.14,2.64-8.15.56-12.62-.22-13.38-.81.67-.68,5-2.08,13.14-2.64Z"/>
      <path class="cls-2" d="M293.23,142.16c2.6,0,4.88-.15,5.45-.18,1.49-.1,14.59-1.09,14.39-4h0c-.2-2.91-13.31-2.09-14.8-1.99-1.49.1-14.59,1.09-14.39,4.01.13,1.8,5.16,2.17,9.35,2.17ZM298.35,137.26c8.15-.56,12.62.22,13.38.81-.67.68-5,2.08-13.14,2.64-8.14.56-12.62-.22-13.38-.81.67-.68,5-2.08,13.14-2.64Z"/>
    </g>
  </g>
</svg>