<?xml version="1.0" encoding="UTF-8"?>
<svg id="Layer_2" data-name="Layer 2" xmlns="http://www.w3.org/2000/svg" viewBox="0 0 593.22 326">
  <defs>
    <style>
      .cls-1 {
        fill: none;
      }

      .cls-2 {
        fill: #706f6f;
      }
    </style>
  </defs>
  <g id="_ÎÓÈ_1" data-name="—ÎÓÈ_1">
    <rect class="cls-1" width="593.22" height="326"/>
    <g>
      <path class="cls-2" d="M333.86,113.65c2.68-1.05,4.46-3.68,4.44-6.55-.04-4.14-.28-8.31-.72-12.42-.29-2.72-.67-5.46-1.14-8.15-.37-2.15-2.24-3.7-4.44-3.7h-32.47c-.37,0-.68.3-.68.68v33.91c0,.18.07.36.2.48.13.12.3.19.47.19h.01l21.21-.36c1.83-.03,3.61-.38,5.31-1.05l7.79-3.04ZM320.74,116.38l-20.52.35v-32.55h31.79c1.54,0,2.85,1.08,3.11,2.58.46,2.66.84,5.38,1.13,8.06.43,4.06.67,8.19.71,12.28.02,2.31-1.42,4.43-3.58,5.28l-7.79,3.04c-1.55.61-3.18.93-4.84.96Z"/>
      <path class="cls-2" d="M257.16,139.6h19.09c1.45,0,2.63-1.18,2.63-2.63s-1.18-2.63-2.63-2.63h-19.09c-1.45,0-2.63,1.18-2.63,2.63s1.18,2.63,2.63,2.63ZM257.16,135.7h19.09c.7,0,1.27.57,1.27,1.27s-.57,1.27-1.27,1.27h-19.09c-.7,0-1.27-.57-1.27-1.27s.57-1.27,1.27-1.27Z"/>
      <path class="cls-2" d="M116.61,185.83c-16.45,0-29.83,13.07-29.83,29.13s13.38,29.13,29.83,29.13,29.83-13.07,29.83-29.13-13.38-29.13-29.83-29.13ZM116.61,242.75c-15.7,0-28.48-12.46-28.48-27.78s12.77-27.78,28.48-27.78,28.48,12.46,28.48,27.78-12.77,27.78-28.48,27.78Z"/>
      <path class="cls-2" d="M116.61,218.38c2.05,0,3.72-1.64,3.72-3.65s-1.67-3.65-3.72-3.65-3.72,1.64-3.72,3.65,1.67,3.65,3.72,3.65ZM116.61,212.43c1.31,0,2.37,1.03,2.37,2.3s-1.06,2.3-2.37,2.3-2.37-1.03-2.37-2.3,1.06-2.3,2.37-2.3Z"/>
      <path class="cls-2" d="M118.81,227.34c-1.07-1.35-3.33-1.35-4.4,0l-5.6,7.02c-.82,1.03-.82,2.47,0,3.5l1.6,2.02c.39.5.95.85,1.58,1,.39.09.81.18,1.25.25,1.11.18,2.24.26,3.37.23.16,0,.31,0,.47,0,.97,0,1.95-.08,2.9-.23.44-.07.86-.16,1.25-.25.62-.15,1.19-.5,1.58-1l1.6-2.02c.82-1.03.82-2.47,0-3.5l-5.6-7.02ZM123.35,237.02l-1.6,2.02c-.21.26-.49.44-.83.52-.36.09-.75.16-1.16.23-1.03.17-2.08.24-3.14.21h-.02s-.02,0-.02,0c-1.06.03-2.11-.04-3.14-.21-.41-.07-.79-.14-1.15-.23-.33-.08-.62-.26-.83-.52l-1.6-2.02c-.42-.53-.42-1.28,0-1.81l5.6-7.02c.56-.7,1.72-.7,2.28,0l5.6,7.02c.43.53.43,1.28,0,1.82Z"/>
      <path class="cls-2" d="M127.4,218.43c-.26.82-.14,1.7.33,2.42l4.97,7.48c.54.81,1.42,1.26,2.34,1.26.33,0,.67-.06.99-.18l2.42-.91c.59-.22,1.1-.65,1.43-1.2.21-.35.42-.72.62-1.11.51-1,.93-2.06,1.25-3.14.37-1.07.65-2.17.82-3.28.07-.44.11-.86.15-1.27.05-.64-.11-1.28-.47-1.81l-1.44-2.15c-.73-1.09-2.1-1.53-3.33-1.07l-8.4,3.18c-.81.3-1.42.95-1.68,1.77ZM137.96,214.75c.17-.06.35-.1.52-.1.48,0,.93.23,1.21.65l1.44,2.15c.19.28.27.6.24.95-.03.37-.07.76-.14,1.17-.16,1.03-.41,2.06-.76,3.05v.04c-.3,1.01-.69,1.99-1.17,2.92-.19.37-.38.71-.57,1.03-.18.29-.44.51-.75.63l-2.42.91c-.64.24-1.35,0-1.73-.56l-4.97-7.48c-.25-.37-.31-.83-.17-1.25s.46-.76.87-.92l8.4-3.18Z"/>
      <path class="cls-2" d="M136.72,201.24l-.07-2.58c-.02-.63-.25-1.25-.66-1.75-.26-.31-.54-.63-.85-.95-.78-.81-1.65-1.56-2.56-2.21-.89-.7-1.84-1.32-2.83-1.84-.39-.21-.78-.39-1.15-.55-.59-.26-1.25-.31-1.86-.15l-2.5.66c-1.27.34-2.13,1.49-2.1,2.8l.26,8.98c.03.86.43,1.65,1.12,2.17.49.37,1.08.56,1.68.56.24,0,.48-.03.71-.09l8.69-2.26c1.27-.33,2.14-1.48,2.1-2.8ZM125.58,204.98c-.43.11-.88.02-1.24-.24-.36-.27-.57-.68-.58-1.12l-.26-8.97c-.02-.68.43-1.28,1.09-1.45l2.5-.66c.12-.03.25-.05.37-.05.2,0,.41.04.6.13.34.15.7.32,1.06.51.93.49,1.81,1.06,2.63,1.72l.03.02c.85.6,1.66,1.29,2.38,2.05.29.3.55.59.79.88.22.26.34.58.35.91l.07,2.58c.02.68-.43,1.28-1.09,1.45l-8.69,2.26Z"/>
      <path class="cls-2" d="M110.93,203.73l.25-8.97c.04-1.32-.83-2.47-2.1-2.8l-2.5-.65c-.61-.16-1.27-.11-1.86.15-.37.16-.75.35-1.15.55-.99.52-1.94,1.14-2.83,1.85-.92.66-1.78,1.4-2.56,2.21-.31.32-.59.64-.85.95-.41.49-.64,1.11-.66,1.75l-.06,2.58c-.03,1.32.84,2.46,2.11,2.79l8.69,2.24c.23.06.47.09.71.09.6,0,1.19-.19,1.69-.57.69-.52,1.1-1.31,1.12-2.17ZM108.99,204.81c-.36.27-.81.36-1.24.25l-8.69-2.24c-.66-.17-1.11-.77-1.09-1.45l.06-2.58c0-.33.13-.65.35-.91.24-.29.5-.58.78-.88.72-.75,1.52-1.44,2.38-2.05l.03-.02c.82-.66,1.71-1.23,2.63-1.72.36-.19.72-.36,1.06-.51.2-.09.4-.13.6-.13.12,0,.25.02.37.05l2.5.65c.66.17,1.11.77,1.09,1.45l-.25,8.97c-.01.45-.22.86-.58,1.13Z"/>
      <path class="cls-2" d="M104.02,216.67l-8.4-3.16c-1.23-.46-2.6-.02-3.33,1.07l-1.43,2.15c-.35.53-.52,1.17-.46,1.81.03.4.08.83.15,1.27.17,1.11.45,2.21.82,3.28.32,1.08.74,2.14,1.25,3.14.2.4.41.77.62,1.11.33.55.84.97,1.44,1.19l2.42.9c.33.12.66.18.99.18.92,0,1.8-.45,2.34-1.26l4.96-7.48c.48-.72.6-1.6.33-2.42-.26-.82-.88-1.46-1.69-1.77ZM104.25,220.11l-4.96,7.49c-.38.57-1.08.8-1.73.56l-2.42-.9c-.31-.12-.57-.33-.75-.63-.19-.32-.39-.66-.57-1.03-.48-.93-.87-1.91-1.17-2.92v-.03c-.36-.99-.62-2.02-.78-3.05-.06-.41-.11-.8-.14-1.17-.03-.34.06-.67.24-.95l1.43-2.15c.28-.42.73-.65,1.21-.65.17,0,.35.03.52.09l8.4,3.16c.42.16.74.49.87.92.14.42.07.88-.17,1.25Z"/>
      <path class="cls-2" d="M447.05,185.83c-16.45,0-29.83,13.07-29.83,29.13s13.38,29.13,29.83,29.13,29.83-13.07,29.83-29.13-13.38-29.13-29.83-29.13ZM447.05,242.75c-15.7,0-28.48-12.46-28.48-27.78s12.77-27.78,28.48-27.78,28.48,12.46,28.48,27.78-12.77,27.78-28.48,27.78Z"/>
      <path class="cls-2" d="M447.05,218.38c2.05,0,3.72-1.64,3.72-3.65s-1.67-3.65-3.72-3.65-3.72,1.64-3.72,3.65,1.67,3.65,3.72,3.65ZM447.05,212.43c1.31,0,2.37,1.03,2.37,2.3s-1.06,2.3-2.37,2.3-2.37-1.03-2.37-2.3,1.06-2.3,2.37-2.3Z"/>
      <path class="cls-2" d="M449.25,227.34c-1.07-1.35-3.33-1.35-4.4,0l-5.6,7.02c-.82,1.03-.82,2.47,0,3.5l1.6,2.02c.39.5.95.85,1.58,1,.39.09.81.18,1.25.25,1.11.18,2.24.26,3.37.23.16,0,.31,0,.47,0,.97,0,1.95-.08,2.9-.23.44-.07.86-.16,1.25-.25.63-.15,1.19-.5,1.58-1l1.6-2.02c.82-1.03.82-2.47,0-3.5l-5.6-7.02ZM453.79,237.02l-1.6,2.02c-.2.26-.5.44-.83.52-.36.09-.75.16-1.16.23-1.03.17-2.08.24-3.14.21h-.02s-.02,0-.02,0c-1.05.03-2.11-.04-3.14-.21-.41-.07-.79-.14-1.16-.23-.33-.08-.62-.26-.83-.52l-1.6-2.02c-.42-.53-.42-1.28,0-1.81l5.6-7.02c.56-.7,1.72-.7,2.28,0l5.6,7.02c.43.53.43,1.28,0,1.81Z"/>
      <path class="cls-2" d="M457.84,218.43c-.26.82-.14,1.7.33,2.42l4.97,7.48c.54.81,1.42,1.26,2.34,1.26.33,0,.67-.06.99-.18l2.42-.9c.59-.22,1.1-.65,1.43-1.2.21-.35.42-.72.62-1.11.51-1,.93-2.06,1.25-3.14.37-1.07.65-2.17.82-3.28.07-.44.11-.86.15-1.27.05-.64-.11-1.28-.47-1.81l-1.44-2.15c-.73-1.09-2.1-1.53-3.33-1.07l-8.4,3.18c-.81.3-1.42.95-1.68,1.77ZM468.4,214.75c.17-.06.35-.1.52-.1.47,0,.93.23,1.21.65l1.44,2.15c.19.28.27.6.24.95-.03.37-.07.76-.14,1.17-.16,1.03-.41,2.06-.76,3.05v.04c-.3,1.01-.69,1.99-1.17,2.92-.19.37-.38.71-.57,1.03-.18.29-.44.51-.75.63l-2.42.91c-.64.24-1.35,0-1.73-.56l-4.97-7.48c-.25-.37-.31-.83-.17-1.25s.46-.76.87-.92l8.4-3.18Z"/>
      <path class="cls-2" d="M467.16,201.24l-.07-2.58c-.02-.63-.25-1.25-.66-1.75-.26-.31-.54-.63-.85-.95-.78-.81-1.64-1.55-2.56-2.21-.89-.7-1.84-1.32-2.83-1.84-.39-.21-.78-.39-1.15-.55-.59-.26-1.25-.31-1.86-.15l-2.5.66c-1.27.34-2.13,1.49-2.1,2.8l.26,8.97c.02.86.43,1.65,1.12,2.17.49.37,1.08.57,1.69.57.24,0,.48-.03.71-.09l8.69-2.26c1.27-.33,2.14-1.48,2.1-2.8ZM456.02,204.98c-.43.11-.89.02-1.24-.25s-.57-.68-.58-1.12l-.26-8.97c-.02-.68.43-1.28,1.09-1.45l2.5-.66c.12-.03.25-.05.37-.05.2,0,.41.04.6.13.34.15.7.32,1.06.51.93.49,1.81,1.06,2.63,1.72l.03.02c.86.61,1.66,1.3,2.38,2.05.29.3.55.59.79.88.22.26.34.58.35.91l.07,2.58c.02.68-.43,1.28-1.09,1.45l-8.69,2.26Z"/>
      <path class="cls-2" d="M441.37,203.73l.25-8.97c.04-1.32-.83-2.47-2.1-2.8l-2.5-.65c-.61-.16-1.27-.11-1.86.15-.37.16-.75.35-1.15.55-.99.52-1.94,1.14-2.83,1.85-.92.66-1.78,1.4-2.56,2.21-.31.32-.59.64-.85.95-.41.49-.65,1.11-.66,1.75l-.06,2.58c-.03,1.31.83,2.46,2.11,2.79l8.69,2.24c.23.06.47.09.71.09.6,0,1.19-.19,1.69-.57.69-.52,1.1-1.31,1.12-2.17ZM439.43,204.81c-.36.27-.81.36-1.24.25l-8.69-2.24c-.66-.17-1.11-.77-1.09-1.45l.06-2.58c0-.33.13-.65.35-.91.24-.29.5-.58.78-.88.72-.75,1.52-1.44,2.38-2.05l.03-.02c.82-.66,1.71-1.23,2.63-1.72.36-.19.72-.36,1.06-.51.2-.09.4-.13.6-.13.12,0,.25.02.37.05l2.5.65c.66.17,1.11.77,1.09,1.45l-.25,8.97c-.01.45-.22.86-.58,1.13Z"/>
      <path class="cls-2" d="M434.46,216.67l-8.4-3.16c-1.23-.46-2.6-.02-3.33,1.07l-1.43,2.15c-.35.53-.52,1.17-.46,1.81.03.4.08.82.15,1.26.17,1.11.45,2.21.82,3.28.32,1.09.74,2.14,1.25,3.14.2.4.41.77.62,1.11.33.55.84.97,1.44,1.19l2.42.9c.33.12.66.18.99.18.92,0,1.8-.45,2.34-1.26l4.96-7.48c.48-.72.6-1.6.33-2.42-.26-.82-.88-1.46-1.69-1.77ZM434.69,220.11l-4.96,7.49c-.38.57-1.09.8-1.73.56l-2.42-.9c-.31-.12-.57-.33-.75-.63-.19-.32-.39-.66-.57-1.03-.47-.93-.87-1.91-1.16-2.92v-.03c-.36-.99-.62-2.02-.78-3.05-.06-.41-.11-.8-.14-1.17-.03-.34.06-.67.24-.95l1.43-2.15c.28-.42.73-.65,1.21-.65.17,0,.35.03.52.09l8.4,3.16c.42.16.74.49.87.92.14.42.07.88-.17,1.25Z"/>
      <path class="cls-2" d="M572.83,184.58c-.04-2.86-2.36-5.18-5.18-5.18h-5.32v-53.87c0-2.68-1.05-5.2-2.96-7.09-1.88-1.86-4.37-2.89-7.01-2.89-.04,0-.07,0-.11,0l-198.91,2.05c.33-8.23.17-16.54-.47-24.74-.37-4.79-.91-9.62-1.61-14.35-.79-5.36-5.3-9.27-10.72-9.31-9.31-.06-18.69,0-27.88.18-5.06.1-9.86.14-14.53.18-16.44.14-30.64.27-48.41,2.65-5.27.71-10.13,1.9-14.03,2.86-2.21.54-4.12,1.01-5.73,1.31-.48.09-.86.46-.96.94,0,0,0,0,0,.01-8.95,3.82-17.92,7.88-26.67,12.09-17.85,8.58-35.52,18.09-52.55,28.28-.58-.31-1.13-.66-1.64-1.04l-1.3-.96c-.24-.18-.53-.26-.83-.23-23.31,2.22-46.75,5.65-69.7,10.18-12.18,2.41-24.46,5.17-36.5,8.22-2.64.67-6.34,4.24-9.2,8.89-2.49,4.04-3.13,7.7-4.3,14.33-.83,4.73-1.37,9.6-1.62,14.49-2.72,1.37-4.45,4.09-4.45,7.15v12.99c0,1.61.47,3.16,1.37,4.48,2.27,3.35,4.93,6.44,7.88,9.18,0,0,0,0,0,0,.52.49,1.07.98,1.63,1.46,2.81,2.4,5.89,4.53,9.14,6.3.13.07.27.11.42.13l1.61,3.15c-.18,1.78.34,3.46,1.48,4.75,1.15,1.31,2.81,2.06,4.55,2.06h16.82c.35,0,.65-.27.67-.63l.71-9.28c2.28.41,4.69.86,7.21,1.32,0,.11,0,.21,0,.32,0,23.08,19.23,41.87,42.86,41.87,22.01,0,40.19-16.29,42.59-37.18l23.56-1.27h15.02s-.01,1.88-.01,1.88c0,0,0,.01,0,.02l-18.84.05c-2.08,0-3.77,1.7-3.76,3.78,0,1.01.4,1.95,1.11,2.66.72.71,1.66,1.1,2.66,1.1h.01l195.65-.52c1.01,0,1.95-.4,2.66-1.12.71-.72,1.1-1.66,1.1-2.67,0-1-.4-1.95-1.12-2.66s-1.68-1.06-2.67-1.1l-21.17.06v-1.49s50.95,0,50.95,0c1.78,21.49,20.25,38.45,42.71,38.45,23.63,0,42.86-18.78,42.86-41.87,0-1.03-.05-2.05-.13-3.06l52.61-4.44c3.63-.31,6.88-2.3,8.88-5.29.24.32.51.62.83.88.99.82,2.27,1.25,3.64,1.25.43,0,.86-.04,1.3-.13l10.96-2.13c2.83-.55,5.02-3.26,4.98-6.16l-.15-11.31ZM556.83,179.39c-3.55,0-6.54,2.79-6.54,6.1v5.59l-49.91-1.11c-6.95-25.84-31.28-43.97-58-43.12-26.54.82-49.64,20.22-55.13,46.21l-12.58.29c4.39-17.51,13.83-33.12,27.07-44.56,14.72-12.72,32.51-19.05,50.05-17.84,24.7,1.71,47.73,18.63,60.09,44.16.11.23.35.38.61.38h47.44v3.88h-3.09ZM168.57,209.34c-.02-13.53-5.25-26.33-14.79-36.18-9.78-10.09-22.78-15.71-36.59-15.84-8.92-.06-17.51,2.15-25.15,6.37h-15.14c9.89-6.83,21.68-10.84,34.24-10.96,27.61-.23,52.68,18.75,60.92,46.22.09.29.35.48.65.48h.02l11.14-.26c.13.66.26,1.32.4,1.98.07.31.34.54.66.54h187.49c.33,0,.62-.24.67-.57.35-2.15.78-4.28,1.28-6.39l13.46-.31c.32,0,.59-.23.65-.54,5.16-25.64,27.85-44.84,53.95-45.65,26.25-.82,50.17,17.1,56.78,42.6.08.29.34.5.64.51l50.45,1.12v6.04l-35.06.71c-.06,0-.13,0-.19.02l-18.66,3.44c-1.53-26.19-23.02-47.77-48.52-48.41-13.23-.34-26.44,5.14-36.16,15.02-9.78,9.93-15.2,23.48-14.97,37.33l-228.15,2.74ZM64.88,210.46l-.03.44h-4.16c-5.46-.97-9.63-1.67-11.4-1.88.22-1.66.52-3.29.86-4.9l3.79-.43c1.15-.13,2.22-.81,3-1.9,1.11-1.57,1.51-3.82,1.04-5.88l-.94-4.15c-.28-1.22-.85-2.27-1.6-3.04,4.64-9.49,11.44-17.63,19.69-23.76.54.04,1.07.08,1.61.08h13c-3.49,2.17-6.76,4.76-9.74,7.78-10.06,10.18-15.43,23.59-15.11,37.63ZM53.79,189.13c.38.22.71.55,1.01.93.11.14.19.32.29.48-.25-.13-.52-.21-.81-.21-1.91,0-2.94,3.08-2.94,5.99s.96,5.76,2.75,5.97c-.1.02-.19.06-.29.07l-3.33.38-1.42.16-8.19.93c-1.45.17-2.83-1.11-3.34-3.1l-.43-1.69c-.68-2.68.44-5.57,2.39-6.19l12.44-3.93c.62-.2,1.25-.12,1.84.2.02,0,.03.01.05.02ZM55.85,196.31c0,2.78-.96,4.63-1.59,4.63s-1.59-1.85-1.59-4.63.95-4.63,1.59-4.63,1.59,1.85,1.59,4.63ZM347.8,200.33h-55.88c-.07-1.22-.13-2.45-.19-3.67l56.69-1.32c-.2,1.65-.39,3.31-.62,5ZM349.79,195.3l23.16-.54c-.42,1.84-.81,3.69-1.13,5.57h-22.67c.23-1.7.44-3.37.63-5.03ZM290.57,200.33h-105.11c-.08-.4-.16-.79-.24-1.19l105.15-2.45c.07,1.21.12,2.43.19,3.64ZM559.92,167.07c-3.71-6-6.82-12.35-9.25-18.95-2.07-5.6-3.66-11.41-4.75-17.3h14v36.24ZM552.27,117.94c2.08-.05,3.96.76,5.41,2.19,1.45,1.44,2.25,3.35,2.25,5.39v3.95h-14.81c-.2,0-.39.09-.52.24-.13.15-.18.36-.15.55,1.1,6.23,2.77,12.4,4.96,18.32,2.71,7.35,6.25,14.41,10.52,21.01v4.56h-47.02c-12.62-25.75-35.96-42.8-61.03-44.54-17.91-1.24-36.03,5.21-51.03,18.16-13.54,11.7-23.16,27.69-27.57,45.61l-23.32.54c1.73-15.25,2.17-29.08,2.5-44.03.2-9.22.41-19.83.32-29.92l199.5-2.06ZM351.22,119.64c.06.06.13.09.19.13.1,10.14-.11,20.84-.32,30.11-.33,14.97-.77,28.82-2.51,44.09l-56.93,1.33c-.8-14.99-1.38-30.14-1.7-45.11-.2-9.46-.3-19.04-.31-28.44l31.18-.53c2.24-.04,4.44-.47,6.52-1.29l7.79-3.04c4.02-1.57,6.7-5.52,6.66-9.83-.04-4.25-.29-8.54-.74-12.76-.3-2.8-.69-5.61-1.17-8.37-.66-3.83-3.98-6.6-7.88-6.6h-55.27c-23.73,0-46.71,6.91-66.43,19.98l-.22.14c-7.21,4.79-14.27,9.98-20.99,15.43-.05.04-.09.08-.13.13-.83,1.16-1.41,2.45-1.75,3.83-.32,1.33-.39,2.69-.22,4.04.04.34.33.59.67.59h.01l10.05-.17-.64.84c-.09.12-.14.27-.14.42,0,.52.13,2.33,1.41,3.71,1.06,1.14,2.33,1.37,3.16,1.37.46,0,.79-.07.87-.09.12-.03.22-.09.31-.17l6.62-6.28,78.95-1.34c0,9.42.11,18.99.31,28.44.32,14.97.9,30.11,1.7,45.11l-105.35,2.46c-2.81-14.05-4.47-28.39-4.91-42.68-.36-11.72.09-23.58,1.34-35.24.29-2.73,1.61-5.18,3.71-6.92,6.23-5.14,15.11-11.35,26.39-18.45,17.1-10.77,37.28-17.26,56.82-18.28,8.59-.45,25.92-.98,29.31-1.08,9.4-.28,27.17-.28,39.49.21,4.37.18,8.56,2.13,11.49,5.36l.63.69c.52,3.86.96,7.75,1.26,11.63.66,8.52.8,17.17.41,25.71-.02.33.11.65.33.89ZM216.71,121.64s.01,0,.02,0c.22-.09.37-.28.41-.52.09-.54.19-1.08.28-1.63l60.44-1.02c.33,0,.62-.25.66-.59l4.66-34.28c.03-.19-.03-.39-.16-.54s-.31-.23-.51-.23h-5.78c-23.05,0-45.35,6.71-64.5,19.39l-.22.15c-1.78,1.18-3.55,2.39-5.31,3.62-1.97.55-3.63,1.5-4.59,3.24,0,.02-.01.04-.02.05-3.36,2.46-6.67,4.99-9.89,7.58-.11.09-.2.22-.23.36l-.46,1.84c-.05.2,0,.42.13.59.13.16.32.26.53.26h.01l8.25-.14-1.65,2.16-10.49.18c-.07-.99.02-1.98.25-2.95.29-1.18.79-2.29,1.48-3.28,6.67-5.41,13.67-10.55,20.88-15.34l.15-.1c19.5-12.92,42.21-19.75,65.68-19.75h13.82l-2.24,39.73-71.62,1.21ZM203.36,118.18c1.3,1.72,3.21,2.98,5.36,3.66l-6.78,6.44c-.44.06-1.62.11-2.57-.91-.82-.88-1-2.02-1.04-2.58l5.04-6.6ZM204.24,117.12c-1.36-1.98-2.17-4.98-.93-7.23,1.69-3.07,6.36-3.2,10.87-3.32.62-.02,1.29-.04,1.98-.04.84,0,1.71.03,2.53.12-1.09,4.49-2.04,9.15-2.82,13.86-3.67,1.32-9.09.31-11.63-3.4ZM220.18,106.25c.04-.18.01-.37-.09-.53-.1-.16-.27-.26-.45-.3-1.78-.31-3.84-.25-5.5-.21-1.38.04-2.82.08-4.21.22.94-.65,1.89-1.3,2.84-1.93l.22-.15c18.93-12.54,40.97-19.17,63.75-19.17h5l-4.48,32.94-59.6,1.01c.73-4.04,1.57-8.03,2.52-11.88ZM202.57,116.98l-1.09,1.43-8.44.14.19-.76c2.67-2.15,5.41-4.24,8.17-6.29-.23,1.88.29,3.88,1.16,5.48ZM291.92,80.69h40.09c3.25,0,6,2.3,6.55,5.48.47,2.73.86,5.52,1.16,8.29.45,4.17.69,8.42.73,12.62.03,3.75-2.3,7.19-5.8,8.56l-7.79,3.04c-1.94.76-3.97,1.16-6.05,1.19l-31.12.53,2.24-39.71ZM236.25,77.39c3.85-.94,8.63-2.12,13.78-2.81,17.63-2.36,31.75-2.49,48.11-2.63,4.68-.04,9.49-.08,14.55-.18,9.18-.18,18.53-.24,27.82-.18,4.23.03,7.75,3.08,8.37,7.26.01.1.02.2.04.3-3.13-3.09-7.36-4.96-11.77-5.13-12.35-.49-30.16-.5-39.58-.21-3.39.1-20.74.63-29.34,1.08-19.76,1.04-40.17,7.6-57.47,18.49-11.33,7.13-20.25,13.37-26.53,18.55-2.38,1.96-3.87,4.74-4.2,7.82-1.25,11.72-1.7,23.64-1.34,35.42.44,14.29,2.09,28.62,4.89,42.67l-10.38.24c-8.56-27.77-34-46.96-62.08-46.69-13.44.12-26.02,4.62-36.41,12.21-5.01-.48-9.77-2.75-13.29-6.39l-1.32-1.37c4.77-1.27,9.54-2.82,14.31-4.65.06-.02.1-.07.15-.1h0c.06-.03.13-.08.19-.13.07-.05.16-.09.22-.16,6.77-4.95,24.14-15.33,47.56-12.43,25.5,3.16,40.5,20.24,44.5,25.4l1.07-.83c-4.07-5.26-19.38-22.69-45.4-25.91-22.38-2.77-39.36,6.35-47.1,11.67-.08-.66-.39-1.16-.89-1.37l-13.88-5.65c15.91-5.72,32.42-9.54,49.13-11.31,3.58-.38,7.08-.64,10.47-.89,3.59-.27,6.98-.52,10.28-.89,10.16-1.16,17.48-2.33,24.61-7.42,2.91-.4,5.98-1.68,7.83-2.68,4.67-2.53,11.07-6.43,18.49-10.94,17.29-10.53,38.82-23.63,51.31-27.19.45-.13.78-.51.86-.97.07-.46-.13-.92-.52-1.18l-.1-.06c.95-.22,1.97-.47,3.05-.74ZM74.19,148.56c.05.06.14.33.07.72-.04.23-.13.4-.21.5-.07.05-.14.1-.21.16-12.21,4.69-24.48,7.53-36.49,8.43-1.92.14-3.85.24-5.87.28.07-2.15.19-3.87.39-5.45,3.26-2.11,6.59-3.96,9.89-5.49,5.68-2.64,11.46-4.45,17.08-5.38l15.35,6.24ZM202.91,90.63c8.74-4.2,17.69-8.26,26.62-12.07l.36.24c-12.99,4.47-33.12,16.72-49.48,26.68-7.39,4.5-13.77,8.38-18.38,10.88-3.36,1.82-7.96,3.17-10.29,2.19-.15-.05-.31-.12-.46-.18,16.74-9.98,34.11-19.31,51.64-27.74ZM40.4,136.18c12-3.04,24.23-5.8,36.38-8.2,22.71-4.49,45.93-7.88,69-10.1l.93.69c.62.46,1.29.89,2,1.26.73.39,1.48.72,2.17.95.58.24,1.23.38,1.91.45-6.35,3.92-13.12,4.96-22.22,6-3.27.37-6.65.62-10.23.89-3.4.25-6.91.51-10.51.89-16.98,1.8-33.76,5.69-49.92,11.55l-26.3,1.99c2.54-3.67,5.3-5.99,6.79-6.37ZM32.65,144.01s.01-.02.02-.03l19.12-1.45c-3.54,1-7.09,2.31-10.59,3.94-3.45,1.6-6.92,3.54-10.32,5.76-.17.11-.28.28-.3.48-.25,1.89-.39,3.93-.46,6.61,0,.19.07.36.2.49.13.13.3.2.48.2h.01c2.31-.04,4.49-.14,6.66-.3,6.97-.52,14.04-1.71,21.12-3.51l1.86,1.93c3.42,3.53,7.93,5.83,12.75,6.6-6.42,4.99-11.93,11.19-16.19,18.29.04-1.69-.98-3.57-1.97-4.38-4.43-3.63-17.1-7.47-21.4-7.47l-6.53-.03c.26-4.61.78-9.19,1.57-13.65,1.2-6.82,1.82-9.98,3.98-13.49ZM23.59,194.85c-.63-.92-.96-2.01-.96-3.14v-12.99c0-2.26,1.34-4.27,3.44-5.18l7.54.03h0c3.88,0,16,3.74,19.88,6.93.58.47,1.35,2.09,1.06,2.79-.21.52-.76,1.22-3.04,1.22h-6.96c-8.09,0-15.12,7.12-15.34,15.56v.27s-.04,1.38-.04,1.38c-2.05-2.12-3.93-4.42-5.59-6.87ZM31.52,203.99l.1-3.86c.19-7.17,6.12-13.22,12.95-13.22h6.96c1.6,0,2.86-.32,3.78-.93-.34.63-.67,1.27-.98,1.91-.9-.47-1.9-.58-2.85-.28l-12.44,3.93c-2.65.84-4.16,4.42-3.28,7.87l.42,1.63c.63,2.49,2.41,4.14,4.39,4.14.14,0,.27,0,.41-.02l7.74-.88c-.35,1.73-.65,3.48-.87,5.26-.03.22.02.44.18.58.16.15.35.21.57.17h.03c.38,0,1.86.22,4.15.6h-11.63c-3.01-1.67-5.86-3.65-8.47-5.88-.4-.34-.79-.68-1.16-1.03ZM64.52,221.88h-16.2c-1.35,0-2.64-.58-3.53-1.6-.92-1.05-1.32-2.43-1.13-3.9.02-.14,0-.28-.07-.4l-1.38-2.69h22.97l-.66,8.59ZM116.61,254.44c-22.31,0-40.47-17.71-40.47-39.47s18.15-39.47,40.47-39.47,40.47,17.71,40.47,39.47-18.15,39.47-40.47,39.47ZM182.72,217.03l-23.39,1.26c.09-1.1.15-2.2.15-3.32,0-23.08-19.23-41.87-42.86-41.87s-41.9,17.87-42.82,40.17c-2.28-.42-4.51-.83-6.63-1.21l.11-1.54c-.29-13.5,4.83-26.29,14.43-36.01,9.43-9.55,21.85-14.8,35.02-14.8.15,0,.3,0,.45,0,13.17.12,25.56,5.49,34.89,15.11,9.39,9.68,14.39,22.36,14.1,35.7,0,.33.12.64.35.87s.49.38.87.36l34.91-.42c-2.49.18-4.47,2.23-4.49,4.76v.94h-15.07ZM199.11,220.27l.03-4.17c.01-1.92,1.55-3.47,3.51-3.45,1.92.02,3.47,1.59,3.45,3.51l-.03,4.1v.07c0,.46-.1.89-.26,1.29-.52,1.26-1.75,2.14-3.24,2.16-.93,0-1.79-.38-2.45-1.04-.32-.32-.56-.7-.73-1.1-.18-.42-.27-.88-.27-1.35,0,0,0,0,0,0ZM207.44,218.38h137.5s-.01,1.51-.01,1.51l-137.5.36v-1.88ZM374.57,221.17h0c.64,0,1.24.25,1.7.71.46.46.71,1.06.72,1.71,0,.64-.25,1.25-.71,1.71-.46.46-1.06.71-1.71.72l-195.65.52h0c-.64,0-1.25-.25-1.7-.71-.46-.46-.71-1.06-.72-1.71,0-1.33,1.08-2.42,2.41-2.43l19.05-.05c.22.76.61,1.47,1.18,2.05.91.92,2.12,1.44,3.4,1.45.01,0,.03,0,.04,0,2.2,0,4.05-1.49,4.63-3.52l137.77-.36c.35,1.97,2.06,3.47,4.13,3.49.01,0,.02,0,.03,0,2.08,0,3.81-1.52,4.16-3.51l21.26-.06ZM352.04,220.53c0,.24-.04.48-.1.7-.32,1.24-1.44,2.16-2.78,2.16h-.02c-1.32-.01-2.42-.92-2.75-2.14-.07-.24-.11-.5-.11-.76v-.59s.03-3.21.03-3.21c0-.77.31-1.48.86-2.03.54-.54,1.26-.83,2.02-.83h.02c.77,0,1.49.31,2.03.86.54.55.84,1.28.83,2.04l-.02,3.15v.65ZM447.05,254.44c-22.31,0-40.47-17.71-40.47-39.47s18.15-39.47,40.47-39.47,40.47,17.71,40.47,39.47-18.15,39.47-40.47,39.47ZM542.28,206.11l-52.61,4.44c-2.26-21.02-20.52-37.45-42.62-37.45-23.63,0-42.86,18.78-42.86,41.87,0,.69.02,1.38.05,2.06h-50.82v-.29c.01-1.13-.42-2.19-1.22-3-.8-.81-1.85-1.26-2.98-1.27-1.08.01-2.19.42-3,1.22s-1.26,1.85-1.27,2.98v.36h-137.5v-.86c.03-2.58-2-4.7-4.55-4.85l195.07-2.34c.32,0,.63-.14.85-.37s.34-.55.33-.87c-.55-13.62,4.64-27.03,14.25-36.79,9.26-9.41,21.8-14.62,34.4-14.3,24.7.62,45.45,21.92,46.24,47.48.01.35.17.68.45.9.27.22.63.31.97.25l19.92-3.68,35.15-.71c-1.73,2.96-4.8,4.94-8.24,5.23ZM567.74,200.71l-10.96,2.13c-1.44.28-2.83-.02-3.82-.83-.86-.71-1.33-1.73-1.33-2.9v-13.62c0-2.57,2.38-4.75,5.19-4.75h10.82c2.08,0,3.8,1.73,3.83,3.85l.15,11.31c.03,2.23-1.71,4.39-3.88,4.81Z"/>
    </g>
  </g>
</svg>