<?xml version="1.0" encoding="UTF-8"?>
<svg id="Layer_2" data-name="Layer 2" xmlns="http://www.w3.org/2000/svg" viewBox="0 0 593.22 326">
  <defs>
    <style>
      .cls-1 {
        fill: none;
      }

      .cls-2 {
        fill: #706f6f;
      }
    </style>
  </defs>
  <g id="_ÎÓÈ_1" data-name="—ÎÓÈ_1">
    <rect class="cls-1" width="593.22" height="326"/>
    <g>
      <path class="cls-2" d="M560.75,183.98l-1.92-2.69.25-13.32c.03-1.76-.47-3.46-1.44-4.92l-8.21-12.31c-.04-.06-.1-.09-.15-.14.64-3.26.99-6.58,1.03-9.89.03-2.59-.14-5.2-.48-7.78.1-.09.19-.18.26-.3l3.27-6.23c.17-.32.18-.71.02-1.04-.16-.33-.46-.56-.82-.63l-26.81-5.14c-.12-.02-.25-.03-.37,0-.23.03-.49.06-.77.1-15.89-6.1-32.14-11.81-48.34-16.99-14.33-4.58-28.97-8.84-43.51-12.68-.03-.07-.04-.15-.08-.22-.17-.27-.43-.46-.74-.52-36.22-7.85-73.25-11.24-110.05-10.07-23.54.75-47.23,3.39-70.42,7.83-.39.08-.72.35-.86.72-.01.03-.02.07-.02.1-14.71,4.97-29.39,10.56-43.67,16.63-16.51,7.02-32.91,14.87-48.76,23.32l-3.7-1.8c-.17-.08-.35-.12-.53-.12-20.91.52-46.2,2.42-75.34,12.53-15.6,5.42-30.75,12.44-45.03,20.87-.27.16-.46.41-.53.71-.89,3.56-1.5,7.22-1.81,10.87-.41,4.87,2.25,34.33,2.68,37.36.13.95.27,1.88.42,2.8.64,4,3.77,7.06,7.78,7.61,3.2.44,6.44.86,9.72,1.26,1.79.22,3.84.44,6.03.66l38.63,7.52c6.86,11.34,19.49,18.96,33.92,18.96s26.98-7.57,33.86-18.85l250.31-.3c6.83,11.44,19.53,19.15,34.04,19.15,16.37,0,30.44-9.81,36.37-23.72l8.94-5.93c.11.93.2,1.81.27,2.55.03.35.06.55.07.58.13.52.62.94,1.15.87,5.26-.16,23.48-.84,37.23-2.78,2.4-.34,6.86-.97,12.02-3.47,3.6-1.74,6.99-4.14,9.81-6.95,2.67-2.65,4.91-5.69,6.65-9.04.66-1.28,1.01-2.7,1.01-4.13v-6.87c0-1.5-.46-2.95-1.34-4.17ZM558.87,185.32h0c.3.42.53.88.68,1.36-3.42,2.02-6.76,4.2-9.94,6.5-2.89,2.09-4.5,3.44-5.68,4.43-1.31,1.1-2.11,1.77-3.63,2.62-3.67,2.06-7.39,2.92-22.16,3.93-6.14.42-12.37.72-18.6.96-2.13-13.01-8.86-24.54-18.38-32.79l7.33-1.61c7.17-1.57,13.34-5.81,17.38-11.93l6.61-10.01.31.03c6.25,5.8,13.37,10.46,21.18,13.85,7.25,3.14,14.92,5.09,22.8,5.83l-.24,13.14c0,.25.07.49.21.69l2.14,3ZM498.93,212.47l-3.09,2.05c-.32-2.35-.76-5.04-1.35-7.91,1.31-.04,2.62-.1,3.93-.15.28,1.97.46,3.97.52,6.01ZM494.2,205.31c-1.84-8.41-4.98-18.04-10.33-24.78-2.08-2.62-4.68-5.03-7.64-7.14l3.34-.73c9.65,8.06,16.48,19.52,18.65,32.49-1.34.05-2.67.11-4.01.15ZM402.93,222.64c-10.58-.02-86.45-.22-225.92-.59,3.18-24.17-8.15-47.18-27.85-56.29-20.15-9.31-39.67.49-40.49.91-4.9,2.51-9.21,5.86-12.88,9.83l-3.46-2.76c.17-.17.33-.34.5-.51,11.04-10.75,25.72-16.38,40.26-15.47,28.79,1.82,51.88,28.69,50.44,58.68,0,.18.06.35.18.48s.29.2.47.2h0l209.34-.4c.18,0,.35-.07.47-.2s.19-.3.18-.48c-.17-4.45.21-8.82,1.09-13.06.24-1.17.52-2.32.84-3.47,8.18-11.61,15.09-21.25,21.35-29.79.99-.68,2.01-1.32,3.04-1.93,8.03-4.77,17.18-7.36,26.45-7.26,11.69.09,22.55,4.23,31.3,11.08l-3.51.77c-12.95-8.43-32.18-11.41-48.2-3.04-11.35,5.93-18.78,16.31-22.07,30.86-2.15,9.47-1.91,18.68-1.53,22.43ZM82.63,220.45c-3.69-.3-13.84-1.12-22.58-1.99l15-1.74c.34-.04.59-.33.58-.67-.56-15.32,5.19-30.28,15.8-41.37l3.5,2.79c-9.65,11.07-14.36,26.7-12.29,42.98ZM59.16,153.86c6.32-2.79,12.94-4.97,19.69-6.48.03,0,.05,0,.08,0,.02,0,.03,0,.05,0h0l20.12,2.47c.27.03.32.24.33.33.01.09,0,.3-.24.39-13.81,5.27-28.13,9.15-42.58,11.54-4.67.77-9.43,1.4-14.16,1.87-.25.03-.36-.16-.39-.24-.03-.08-.08-.3.14-.45,5.34-3.65,11.04-6.82,16.95-9.43ZM184.19,134.42h.02l7.87-.26c-1.07,3.07-2.03,6.17-2.88,9.31-29.68,1.62-59.31,3.56-88.76,5.85-.26-.41-.68-.7-1.19-.76l-17.2-2.12c12.23-3.58,24.64-6.3,36.94-8.07,13.27-1.91,24.3-2.46,38.32-3.16,8.95-.44,18-.71,26.88-.79ZM431.16,137.95c-37.04-.33-74.15-.13-110.94.61-2.16.04-4.33.11-6.5.15.69-2.92,1.45-5.82,2.26-8.72l108.16-3.63c3.72,3.52,6.07,7.42,7.02,11.59ZM501.79,140.53c.07.1.15.2.24.27l9.26,7.37-6.53,9.89c-3.85,5.84-9.74,9.88-16.57,11.37l-8.31,1.82c-9.1-7.43-20.57-11.93-32.93-12.03-8.53-.08-16.98,2.06-24.59,6.04.26-.35.52-.7.77-1.04l.13-.17c4.38-5.9,10.9-14.71,9.45-24.79,23.09.21,46.14.64,69.07,1.27ZM549,140.69c-.04,3.17-.37,6.36-.97,9.48l-35.12-3.67-7.41-5.89,43.06-7.27c.31,2.43.46,4.9.43,7.35ZM422.22,163.28l-.13.17c-.82,1.11-1.66,2.23-2.5,3.37-4.05,2.43-7.82,5.39-11.17,8.85-7.35,7.58-12.25,16.8-14.37,26.78-2.18,3.1-4.43,6.31-6.8,9.7h-78.02c-2.38-22.13-1.46-44.13,2.72-65.41.44-2.24.93-4.49,1.45-6.73,2.27-.05,4.55-.12,6.83-.16,26.88-.54,53.93-.78,80.99-.75-1.7.46-2.46,1.02-2.45,1.79.04,2.24,8.19,2.47,11.57,2.47.46,0,.83,0,1.08,0,3.23-.05,6.27-.32,8.56-.74,2.83-.53,4.03-1.17,4.01-2.14,0-.53-.39-.94-1.17-1.28,2.85.02,5.71.03,8.56.06,1.49,9.64-4.9,18.27-9.17,24.02ZM207.64,133.63l-2.01,2.26c-.11.12-.17.28-.17.44,0,.44.12,1.99,1.4,3.16,1.02.94,2.2,1.13,2.99,1.13.41,0,.71-.05.84-.08.1-.02.2-.07.28-.13l7.31-5.93c.71.11,1.43.17,2.14.17,1.45,0,2.86-.22,4.06-.65.22-.08.38-.26.42-.49.03-.16.07-.31.1-.46l89.6-3.01c-.81,2.88-1.55,5.78-2.24,8.7-40.45.9-81.15,2.45-121.78,4.65.85-3.13,1.81-6.23,2.89-9.28l14.16-.48ZM212.44,130.09c-.95-1.18-2.21-3.73-.89-5.77,1.63-2.52,6.34-2.63,10.5-2.73.59-.01,1.24-.03,1.91-.03.8,0,1.63.02,2.41.1-1.03,3.65-1.93,7.42-2.67,11.23-3.56,1.08-8.8.26-11.26-2.8ZM227.84,121.28c.05-.18.02-.38-.08-.53-.1-.16-.27-.27-.45-.29-1.71-.26-3.69-.21-5.29-.17-4.48.11-9.56.23-11.56,3.32-1.05,1.62-.92,3.57-.22,5.27l-12.16.41c20.92-13.25,43.21-23.07,66.3-29.23,16.46-4.39,32.89-6.88,50.2-7.62-2.83,9.11-7.74,24.48-10.56,33.29l-77.99,2.62c.55-2.39,1.15-4.76,1.81-7.06ZM211.63,131.12c1.28,1.48,3.07,2.47,5.01,3.02l-6.35,5.15c-.43.06-1.61.11-2.55-.75-.73-.67-.92-1.52-.96-1.97l4.85-5.44ZM299.02,142.54c-.86.54-4.61,1.45-11.16,1.55-6.54.12-10.32-.67-11.2-1.18.86-.55,4.61-1.45,11.16-1.56,6.55-.11,10.32.67,11.2,1.18ZM278.43,140.96c-2.24.5-3.22,1.1-3.21,1.97.02.97,1.24,1.57,4.08,2.01,2.01.31,4.59.47,7.37.47.4,0,.8,0,1.21,0,3.23-.05,6.27-.32,8.56-.74,2.83-.53,4.03-1.17,4.01-2.14-.02-1.12-2.06-1.74-4.52-2.08,5.38-.14,10.76-.26,16.14-.38-.49,2.15-.96,4.3-1.38,6.45-4.2,21.36-5.12,43.45-2.75,65.66h-117.3c-5.06-19.23-5.94-38.51-2.63-57.31.6-3.39,1.35-6.78,2.22-10.13,29.4-1.59,58.85-2.85,88.21-3.76ZM422.57,140.51c-.86.55-4.61,1.45-11.16,1.56-6.55.11-10.32-.67-11.2-1.18.86-.54,4.61-1.45,11.16-1.55,6.54-.11,10.32.67,11.2,1.18ZM424.71,125.04l-1.53-2.01,12.8-.43c4.09-.14,8.03-1.71,11.1-4.44l4.44-4c.17-.16.25-.39.2-.62-.05-.23-.21-.41-.43-.49-14.66-4.98-29.83-9.13-45.11-12.36l-1.89-2.49c16.15,3.3,32.14,7.62,47.66,12.89.93.32,1.61,1.08,1.8,2.05.2.97-.13,1.94-.87,2.6l-4.44,3.95c-3.42,3.04-7.82,4.8-12.39,4.95l-11.34.38ZM407.42,102.3c14.34,3.08,28.59,6.99,42.38,11.64l-3.6,3.25c-2.83,2.52-6.48,3.98-10.27,4.1l-13.72.46-1.45-1.91-13.33-17.54ZM402.33,97.81l14.34,18.82,4.7,6.18s.03.02.04.03l1.71,2.25-106.85,3.59,8.03-39.79c.39,0,.78,0,1.17,0,27.48,0,51.25,4.27,69.52,7.55,2.45.44,4.89.9,7.33,1.39ZM314.94,128.72l-89.64,3.01c.14-.69.3-1.38.45-2.08l78.78-2.65c.28,0,.52-.19.6-.45,2.89-9.02,8.15-25.5,10.98-34.62.06-.2.02-.42-.11-.59-.13-.17-.32-.25-.54-.26-17.74.7-34.56,3.21-51.41,7.7-23.95,6.38-47.06,16.7-68.67,30.67-.25.16-.36.46-.27.74.09.27.34.46.62.46h.02l14.99-.5-1.89,2.12-22.48.76c24.06-16.82,50-29,77.15-36.24,21.08-5.62,41.07-7.74,59.47-7.91l-8.04,39.83ZM99.65,151.8c.54-.21.92-.65,1.04-1.19,29.25-2.28,58.69-4.21,88.17-5.82-.84,3.26-1.57,6.54-2.15,9.84-3.37,19.15-2.44,38.78,2.78,58.36.08.29.34.48.63.48h197.47c.21,0,.41-.1.54-.28,1.85-2.65,3.63-5.2,5.36-7.66-.5,3.24-.73,6.55-.64,9.9l-207.99.39c.55-14.92-4.56-29.29-14.41-40.54-9.71-11.08-23.3-17.94-37.28-18.82-14.91-.95-29.95,4.83-41.26,15.84-.21.2-.41.42-.61.63l-16.63-13.26c8.45-2.13,16.8-4.75,24.98-7.87ZM555.71,164.33c.57.86.91,1.83,1.01,2.84-7.69-.73-15.17-2.64-22.24-5.71-7.14-3.09-13.68-7.27-19.5-12.42l32.82,3.43,7.91,11.86ZM521.75,119.98c-.66.07-1.21.13-1.49.15-14.07-3.67-28.31-7.58-42.31-11.61-15.36-4.43-30.88-9.14-46.15-14l.83-3.2c14.45,3.82,28.98,8.06,43.22,12.6,15.37,4.91,30.8,10.31,45.91,16.06ZM207.4,105.68c14.23-6.05,28.87-11.62,43.53-16.58l1.78,2.32c-14.53,4.69-28.83,10.47-42.52,17.17-9.59,4.7-19.06,9.94-28.14,15.57-3.88,2.41-8.19,3.92-12.81,4.48l-.97.12c-2.47.31-4.81.6-7.15.5l-1.56-.76c15.56-8.27,31.63-15.94,47.82-22.83ZM79.31,140.6c28.71-9.96,53.69-11.87,74.36-12.4l6.67,3.24c.14.07.29.11.44.12,2.63.13,5.25-.19,7.79-.51l.96-.12c4.95-.6,9.58-2.22,13.75-4.81,9.01-5.6,18.41-10.8,27.94-15.46,14.08-6.9,28.81-12.8,43.77-17.55.36-.11.64-.4.75-.75.11-.36.04-.75-.19-1.05l-1.82-2.37c22.48-4.21,45.42-6.72,68.22-7.44,36.22-1.15,72.65,2.13,108.31,9.76l-.97,3.73c-.15.59.18,1.2.77,1.39,15.63,4.99,31.53,9.82,47.26,14.35,14.09,4.06,28.41,7.99,42.57,11.68.13.03.27.04.41.03.14-.01,3.39-.34,5.19-.57l25.1,4.82-2.28,4.35-45.74,7.72c-.3.05-.56.22-.73.46-23.02-.63-46.16-1.05-69.33-1.27-.89-4.21-3.13-8.15-6.58-11.66l10.17-.34c4.88-.16,9.57-2.04,13.22-5.28l4.44-3.95c1.09-.97,1.57-2.4,1.28-3.83-.29-1.43-1.28-2.56-2.66-3.03-18.56-6.3-37.78-11.26-57.14-14.74-31.06-5.57-77.99-14-132.06.41-27.91,7.44-54.55,20.08-79.19,37.58-8.84.08-17.83.35-26.78.79-14.01.7-25.07,1.25-38.4,3.17-13.42,1.93-26.97,4.98-40.28,9.04-6.82,1.52-13.51,3.73-19.89,6.55-3.86,1.71-7.63,3.67-11.27,5.83-.57-.93-1.62-2.08-2.45-2.92,11.08-5.86,22.61-10.89,34.4-14.98ZM33.98,182.99c-.25-6.33-.06-12.72.51-19.06.12-.64.26-1.27.41-1.9.94,1.25,1.83,2.56,2.62,3.95,2.56,4.49,4.3,9.66,5.16,15.36.32,2.11-.18,4.31-1.34,5.88-.69.94-1.44,1.82-2.23,2.62-1.33,1.35-2.78,2.5-4.32,3.41-.28-3.4-.56-6.98-.79-10.26ZM36.56,210.66c-.15-.9-.28-1.82-.42-2.75-.17-1.2-.7-6.76-1.25-13.23,1.85-1.02,3.57-2.33,5.14-3.92.83-.85,1.62-1.78,2.35-2.77,1.36-1.84,1.95-4.41,1.58-6.85-.88-5.86-2.67-11.18-5.31-15.81-.92-1.61-1.98-3.12-3.1-4.55,2.69-1.57,5.42-3.09,8.16-4.56.95.96,2.05,2.16,2.53,2.93-1.61.98-3.21,1.99-4.76,3.06-.65.44-.9,1.24-.63,1.97.25.68.86,1.1,1.57,1.1.06,0,.11,0,.17,0,4.75-.47,9.55-1.1,14.24-1.88,5.45-.9,10.88-2.01,16.27-3.33l17.3,13.8c-10.66,11.19-16.5,26.2-16.1,41.63l-20.2,2.34c-.71-.08-1.39-.16-2.04-.24-3.27-.39-6.5-.81-9.68-1.25-3-.41-5.33-2.7-5.82-5.69ZM130.36,244.73c-20.44,0-37.07-16.22-37.07-36.16s16.63-36.16,37.07-36.16,37.07,16.22,37.07,36.16-16.63,36.16-37.07,36.16ZM448.56,244.73c-20.44,0-37.07-16.22-37.07-36.16s16.63-36.16,37.07-36.16,37.07,16.22,37.07,36.16-16.63,36.16-37.07,36.16ZM485.75,221.2c1.41-3.96,2.19-8.21,2.19-12.63,0-21.21-17.67-38.47-39.38-38.47s-39.38,17.26-39.38,38.47c0,6.51,1.67,12.64,4.6,18.02l-248.8.31c3.04-5.45,4.76-11.69,4.76-18.32,0-21.21-17.67-38.47-39.38-38.47s-39.38,17.26-39.38,38.47c0,6.51,1.67,12.64,4.6,18.02l-24.63-4.8c7.05.62,12.82,1.07,12.93,1.08.35.04.7-.11.94-.36.24-.26.35-.61.3-.96-3.38-22.31,6.51-43.53,24.61-52.82.78-.4,19.33-9.71,38.46-.87,19.14,8.84,29.97,31.53,26.35,55.17-.05.33.05.67.26.93.22.26.54.4.87.4l213.55.56c3.94,0,6.88.02,9.07.02,6.42,0,6.48-.06,6.74-.32.29-.29.4-.7.31-1.09-.26-2.21-4.11-38.35,22.26-52.13,19.17-10.02,44.09-2.47,54.46,10.58,7.45,9.38,10.46,24.84,11.63,33.97l-7.94,5.26ZM559.77,195.02c0,1.06-.26,2.12-.75,3.06-1.63,3.14-3.73,5.99-6.23,8.47-2.64,2.63-5.82,4.88-9.19,6.51-4.83,2.34-9.06,2.94-11.33,3.26-12.81,1.81-29.59,2.51-35.89,2.73-.09-.9-.21-1.95-.35-3.08l3.93-2.6c.19-.12.3-.33.29-.56-.05-2.16-.23-4.29-.52-6.39,6.2-.24,12.4-.53,18.5-.95,14.28-.98,18.52-1.75,22.71-4.1,1.63-.92,2.51-1.65,3.83-2.76,1.16-.97,2.75-2.31,5.61-4.37,3.01-2.17,6.16-4.24,9.39-6.17,0,.03,0,.05,0,.08v6.87Z"/>
      <path class="cls-2" d="M69.31,204.83c1-1.48,1.28-3.32.76-5.03l-1.22-4c-.89-2.92-3.88-4.66-6.81-3.97l-16.04,3.79c-1.57.37-2.93,1.4-3.72,2.83-.81,1.45-.96,3.19-.4,4.82l.54,1.58c.81,2.37,3,3.94,5.44,3.94.16,0,.32,0,.48-.02l16.7-1.42c1.73-.15,3.28-1.06,4.27-2.51ZM48.24,207.46c-2.03.16-3.91-1.08-4.58-3.04l-.55-1.63c-.42-1.23-.3-2.58.33-3.72.62-1.12,1.64-1.9,2.87-2.19l16.04-3.79c.33-.08.67-.12,1-.12,1.91,0,3.68,1.27,4.26,3.19l1.22,4c.41,1.34.19,2.77-.59,3.92-.76,1.12-1.96,1.83-3.3,1.94l-16.7,1.42Z"/>
      <path class="cls-2" d="M63.24,193.66c-1.84,0-2.84,2.97-2.84,5.77s.99,5.77,2.84,5.77,2.84-2.97,2.84-5.77-.99-5.77-2.84-5.77ZM63.24,203.89c-.61,0-1.53-1.78-1.53-4.46s.92-4.46,1.53-4.46,1.53,1.78,1.53,4.46-.92,4.46-1.53,4.46Z"/>
      <path class="cls-2" d="M332.19,90.98c-.35-.03-.64.25-.67.6l-2.69,33.89c-.01.19.05.37.18.5.12.13.29.2.47.2h.02l81.26-2.73c.24,0,.45-.14.56-.35s.1-.46-.03-.66l-15.48-23.56c-.1-.15-.25-.25-.43-.28l-.75-.14c-17.01-3.05-38.18-6.85-62.44-7.46ZM409.57,122.18l-79.37,2.66,2.58-32.54c23.91.66,44.81,4.41,61.63,7.43l.47.09,14.69,22.36Z"/>
      <path class="cls-2" d="M448.56,179.59c-16.37,0-29.68,13-29.68,28.98s13.31,28.98,29.68,28.98,29.68-13,29.68-28.98-13.31-28.98-29.68-28.98ZM448.56,236.25c-15.64,0-28.37-12.42-28.37-27.68s12.73-27.68,28.37-27.68,28.37,12.42,28.37,27.68-12.73,27.68-28.37,27.68Z"/>
      <path class="cls-2" d="M448.56,211.95c2.03,0,3.69-1.62,3.69-3.61s-1.65-3.61-3.69-3.61-3.69,1.62-3.69,3.61,1.65,3.61,3.69,3.61ZM448.56,206.03c1.31,0,2.38,1.04,2.38,2.31s-1.07,2.31-2.38,2.31-2.38-1.04-2.38-2.31,1.07-2.31,2.38-2.31Z"/>
      <path class="cls-2" d="M450.74,220.91c-1.06-1.33-3.29-1.33-4.35,0l-5.57,6.99c-.81,1.02-.81,2.44,0,3.46l1.59,2.01c.39.49.94.84,1.56.99.39.09.8.18,1.24.25.95.15,1.92.23,2.89.23.15,0,.31,0,.46,0,1.12.03,2.25-.05,3.35-.23.44-.07.85-.15,1.24-.25.62-.15,1.17-.5,1.56-.99l1.59-2.01c.81-1.02.8-2.44,0-3.46l-5.57-6.99ZM455.29,230.55l-1.59,2.01c-.21.26-.5.45-.83.53-.36.08-.75.16-1.15.23-1.03.17-2.08.23-3.13.21h-.03c-1.04.03-2.1-.04-3.13-.21-.4-.07-.79-.14-1.15-.23-.34-.08-.63-.26-.84-.53l-1.59-2.01c-.43-.54-.43-1.29,0-1.83l5.57-6.99c.56-.71,1.74-.71,2.3,0l5.57,6.99c.43.54.43,1.29,0,1.83Z"/>
      <path class="cls-2" d="M474.07,210.3l-1.43-2.14c-.72-1.08-2.08-1.51-3.29-1.05l-8.36,3.16c-.8.3-1.4.94-1.66,1.75-.26.81-.14,1.68.33,2.39l4.95,7.44c.53.8,1.4,1.24,2.31,1.24.33,0,.66-.06.98-.18l2.41-.9c.59-.22,1.09-.64,1.42-1.18.21-.35.41-.71.62-1.11.51-.99.93-2.05,1.24-3.12.37-1.06.64-2.15.81-3.26.07-.44.11-.86.15-1.26.05-.63-.11-1.27-.46-1.79ZM473.1,213.15c-.16,1.03-.41,2.05-.76,3.04,0,.01,0,.02-.01.03-.29,1.01-.68,1.99-1.16,2.91-.19.36-.38.71-.57,1.03-.18.29-.45.52-.76.63l-2.41.9c-.65.25-1.36.01-1.74-.56l-4.95-7.44c-.25-.38-.31-.84-.18-1.27.14-.43.46-.77.88-.93l8.36-3.16c.17-.07.35-.1.53-.1.48,0,.94.24,1.22.66l1.43,2.13c.19.28.27.61.25.96-.03.37-.07.76-.13,1.16Z"/>
      <path class="cls-2" d="M468.56,194.9l-.07-2.57c-.02-.63-.25-1.24-.65-1.72-.26-.31-.54-.62-.85-.94-.78-.81-1.63-1.54-2.55-2.19-.88-.7-1.83-1.32-2.82-1.83-.39-.2-.77-.39-1.14-.55-.58-.25-1.23-.31-1.84-.15l-2.48.65c-1.26.33-2.11,1.47-2.07,2.77l.26,8.94c.02.85.43,1.63,1.11,2.14.49.37,1.07.56,1.66.56.23,0,.47-.03.7-.09l8.65-2.25c1.26-.33,2.11-1.46,2.08-2.76ZM457.5,198.65c-.44.11-.89.02-1.25-.25-.36-.27-.58-.69-.59-1.14l-.26-8.94c-.02-.69.43-1.29,1.1-1.47l2.48-.65c.12-.03.25-.05.38-.05.21,0,.41.04.61.13.34.15.7.32,1.06.51.92.48,1.8,1.06,2.63,1.71,0,0,.02.01.03.02.85.6,1.65,1.29,2.38,2.04.28.3.54.59.78.88.22.27.34.58.35.92l.07,2.57c.02.69-.44,1.29-1.1,1.46l-8.65,2.25Z"/>
      <path class="cls-2" d="M442.88,197.38l.25-8.93c.04-1.3-.82-2.44-2.08-2.77l-2.48-.65c-.6-.16-1.26-.11-1.84.15-.37.16-.75.34-1.14.55-.99.52-1.94,1.14-2.82,1.84-.92.65-1.77,1.39-2.54,2.2-.31.32-.59.64-.84.94-.41.49-.64,1.1-.65,1.73l-.06,2.57c-.03,1.3.82,2.43,2.08,2.76l8.66,2.24c.23.06.47.09.7.09.6,0,1.18-.19,1.67-.56.68-.51,1.08-1.29,1.11-2.14ZM440.99,198.48c-.36.27-.82.36-1.25.25l-8.66-2.24c-.67-.17-1.12-.77-1.1-1.46l.06-2.57c0-.34.13-.66.35-.92.24-.29.5-.58.78-.88.72-.75,1.52-1.44,2.37-2.05,0,0,.02-.01.03-.02.82-.65,1.7-1.23,2.62-1.71.36-.19.72-.36,1.06-.51.2-.09.4-.13.61-.13.13,0,.25.02.37.05l2.48.65c.67.18,1.12.78,1.1,1.47l-.25,8.93c-.01.45-.23.87-.59,1.14Z"/>
      <path class="cls-2" d="M436.02,210.29l-8.37-3.15c-1.22-.46-2.57-.02-3.29,1.06l-1.43,2.14c-.35.52-.51,1.16-.46,1.79.03.4.08.82.15,1.26.17,1.1.44,2.2.82,3.26.32,1.08.74,2.13,1.25,3.12.2.39.41.76.62,1.11.33.54.83.96,1.42,1.18l2.41.9c.32.12.65.18.98.18.91,0,1.78-.45,2.31-1.25l4.94-7.45c.47-.71.59-1.58.33-2.39-.26-.81-.87-1.45-1.67-1.75ZM436.27,213.7l-4.94,7.45c-.38.57-1.09.81-1.74.57l-2.41-.9c-.32-.12-.58-.34-.76-.63-.19-.32-.38-.66-.57-1.03-.48-.93-.87-1.91-1.16-2.91,0-.01,0-.02-.01-.03-.35-.99-.61-2.01-.76-3.04-.06-.4-.11-.79-.14-1.17-.03-.35.06-.68.24-.96l1.43-2.14c.28-.42.74-.66,1.22-.66.17,0,.35.03.52.1l8.37,3.15c.42.16.74.5.88.92.14.43.08.89-.17,1.27Z"/>
      <path class="cls-2" d="M130.36,179.59c-16.36,0-29.68,13-29.68,28.98s13.31,28.98,29.68,28.98,29.68-13,29.68-28.98-13.31-28.98-29.68-28.98ZM130.36,236.25c-15.64,0-28.37-12.42-28.37-27.68s12.73-27.68,28.37-27.68,28.37,12.42,28.37,27.68-12.73,27.68-28.37,27.68Z"/>
      <path class="cls-2" d="M130.36,211.95c2.03,0,3.69-1.62,3.69-3.61s-1.65-3.61-3.69-3.61-3.69,1.62-3.69,3.61,1.65,3.61,3.69,3.61ZM130.36,206.03c1.31,0,2.38,1.04,2.38,2.31s-1.07,2.31-2.38,2.31-2.38-1.04-2.38-2.31,1.07-2.31,2.38-2.31Z"/>
      <path class="cls-2" d="M132.53,220.91c-1.06-1.33-3.28-1.33-4.35,0l-5.57,6.99c-.81,1.02-.81,2.44,0,3.46l1.59,2.01c.39.49.94.84,1.56.99.39.09.8.18,1.24.25.95.15,1.92.23,2.89.23.15,0,.31,0,.46,0,1.12.03,2.25-.05,3.35-.23.44-.07.85-.15,1.24-.25.62-.15,1.17-.5,1.56-.99l1.59-2.02c.81-1.02.8-2.44,0-3.46l-5.57-6.99ZM137.09,230.54l-1.59,2.02c-.21.26-.5.45-.83.53-.36.08-.75.16-1.15.23-1.03.17-2.08.23-3.13.21h-.03c-1.04.03-2.1-.04-3.13-.21-.4-.07-.79-.14-1.15-.23-.34-.08-.63-.26-.84-.53l-1.59-2.01c-.43-.54-.43-1.29,0-1.83l5.57-6.99c.56-.71,1.74-.71,2.3,0l5.57,6.99c.43.54.43,1.29,0,1.83Z"/>
      <path class="cls-2" d="M155.87,210.3l-1.43-2.14c-.72-1.08-2.07-1.51-3.29-1.05l-8.36,3.16c-.8.3-1.4.94-1.66,1.75-.26.81-.14,1.68.33,2.39l4.95,7.44c.53.8,1.4,1.24,2.31,1.24.33,0,.66-.06.98-.18l2.41-.9c.59-.22,1.09-.64,1.42-1.18.21-.35.41-.71.62-1.11.51-.99.93-2.05,1.24-3.12.37-1.06.64-2.15.81-3.26.07-.44.11-.86.15-1.26.05-.63-.11-1.27-.46-1.79ZM154.9,213.15c-.16,1.03-.41,2.06-.76,3.04,0,.01,0,.02-.01.03-.29,1.01-.68,1.99-1.16,2.91-.19.36-.38.71-.57,1.03-.18.29-.45.52-.76.63l-2.41.9c-.64.25-1.36.01-1.74-.56l-4.95-7.44c-.25-.38-.31-.84-.18-1.27.14-.43.46-.77.88-.93l8.36-3.16c.17-.07.35-.1.53-.1.48,0,.94.24,1.22.66l1.43,2.14c.19.28.27.61.24.96-.03.37-.07.76-.13,1.16Z"/>
      <path class="cls-2" d="M150.36,194.9l-.07-2.57c-.02-.63-.25-1.24-.65-1.72-.26-.31-.54-.62-.85-.94-.78-.81-1.63-1.54-2.55-2.19-.88-.7-1.83-1.32-2.82-1.83-.39-.2-.77-.39-1.14-.55-.58-.25-1.23-.31-1.84-.15l-2.48.65c-1.26.33-2.11,1.47-2.07,2.77l.26,8.94c.02.85.43,1.63,1.11,2.14.49.37,1.07.56,1.66.56.23,0,.47-.03.7-.09l8.65-2.25c1.26-.33,2.11-1.46,2.08-2.76ZM139.3,198.65c-.44.11-.89.02-1.25-.25-.36-.27-.58-.68-.59-1.13l-.26-8.94c-.02-.69.43-1.29,1.1-1.47l2.48-.65c.12-.03.25-.05.38-.05.21,0,.41.04.61.13.34.15.7.32,1.06.51.92.48,1.8,1.06,2.63,1.71,0,0,.02.01.03.02.85.6,1.65,1.29,2.38,2.04.28.3.54.59.78.88.22.27.34.58.35.92l.07,2.57c.02.69-.44,1.29-1.1,1.46l-8.65,2.25Z"/>
      <path class="cls-2" d="M124.68,197.38l.25-8.93c.04-1.3-.82-2.44-2.08-2.77l-2.48-.65c-.61-.16-1.26-.11-1.84.15-.37.16-.75.34-1.14.55-.99.52-1.93,1.14-2.82,1.84-.92.65-1.77,1.39-2.54,2.2-.31.32-.59.64-.84.94-.41.49-.64,1.1-.65,1.73l-.06,2.57c-.03,1.3.83,2.43,2.08,2.76l8.66,2.24c.23.06.47.09.7.09.59,0,1.18-.19,1.67-.56.68-.51,1.08-1.29,1.11-2.14ZM122.79,198.48c-.36.27-.82.36-1.25.25l-8.66-2.24c-.67-.17-1.12-.77-1.1-1.46l.06-2.57c0-.34.13-.66.35-.92.24-.29.5-.58.78-.88.72-.75,1.52-1.44,2.37-2.05,0,0,.02-.01.03-.02.82-.65,1.7-1.23,2.62-1.71.36-.19.72-.36,1.06-.51.2-.09.4-.13.61-.13.13,0,.25.02.37.05l2.48.65c.67.18,1.12.78,1.1,1.47l-.25,8.93c-.01.45-.23.87-.59,1.14Z"/>
      <path class="cls-2" d="M117.82,210.29l-8.37-3.15c-1.22-.46-2.57-.02-3.29,1.06l-1.43,2.14c-.35.52-.51,1.16-.46,1.79.03.4.08.82.15,1.26.17,1.1.44,2.2.82,3.26.32,1.08.74,2.13,1.25,3.12.2.39.41.76.62,1.11.33.54.83.96,1.42,1.18l2.41.9c.32.12.65.18.98.18.91,0,1.78-.45,2.31-1.25l4.94-7.45c.47-.71.59-1.58.33-2.39-.26-.81-.87-1.44-1.67-1.74ZM118.07,213.7l-4.94,7.45c-.38.57-1.1.81-1.74.57l-2.41-.9c-.32-.12-.58-.34-.76-.63-.19-.32-.38-.66-.57-1.03-.48-.93-.87-1.91-1.16-2.91,0-.01,0-.02-.01-.03-.35-.99-.61-2.01-.76-3.04-.06-.4-.11-.79-.14-1.17-.03-.35.06-.68.24-.96l1.43-2.14c.28-.42.74-.66,1.22-.66.17,0,.35.03.52.1l8.37,3.15c.42.16.74.5.88.92.14.43.08.89-.17,1.27Z"/>
    </g>
  </g>
</svg>