<?xml version="1.0" encoding="UTF-8"?>
<svg id="Layer_2" data-name="Layer 2" xmlns="http://www.w3.org/2000/svg" viewBox="0 0 593.22 326">
  <defs>
    <style>
      .cls-1 {
        fill: none;
      }

      .cls-2 {
        fill: #706f6f;
      }
    </style>
  </defs>
  <g id="_ÎÓÈ_1" data-name="—ÎÓÈ_1">
    <rect class="cls-1" width="593.22" height="326"/>
    <g>
      <path class="cls-2" d="M561.49,187.3h0s-1.33-11.18-1.33-11.18c-.28-2.37-1.47-4.49-3.34-5.97l-3.06-2.42c-.17-2.72-.29-5.49-.41-8.17-.25-5.76-.51-11.71-1.25-17.55-.65-5.14-1.74-10.28-2.78-15.25l-.67-3.2c-.45-2.18-1.57-4.13-3.23-5.64,0,0,0,0,0,0-.39-.35-.8-.67-1.22-.95-5.46-8.32-11.16-16.13-16.97-23.22-3.22-3.93-6.61-7.81-10.06-11.56l2.11-4.52c.17-.36.15-.78-.04-1.13s-.55-.58-.94-.62c-39.89-4.07-79.73-7.15-118.41-9.16-.51-.03-51.23-2.59-100.18.63-6.71.44-12.33,1.11-15.86,1.59-9.81,1.33-19.6,3.33-29.09,5.92-.35.1-.65.35-.8.68-.03.06-.02.13-.04.19-17.96,6.59-35.72,14.27-52.8,22.83-15.96,8-31.79,17.04-47.07,26.85h-.67s0,.01,0,.01l-19.08.31s-.1,0-.15.01c-17.58,2.45-35.18,6-52.32,10.55-13.35,3.54-26.7,7.77-39.66,12.55-.54.2-.87.75-.79,1.32.03.2.05.4.08.61-3.82,7.93-6.5,16.29-7.96,24.88-.52,3.05-.87,6.16-1.08,9.26-.34.2-.58.57-.6.98-.64,11.39.79,22.79,4.25,33.89.14.44.52.77.98.85l15.98,2.6,44.46,11.51c6.29,14.91,21.33,25.43,38.83,25.43s33.57-11.25,39.45-26.96l240.45-3c4.95,17.26,21.2,29.96,40.43,29.96,21.68,0,39.58-16.14,41.77-36.76l44.33-7.07,7.39-.43c.38-.02.72-.22.94-.53,2.33-3.37,4.35-6.98,6.01-10.72,1.94-4.41,3.39-9.06,4.31-13.81.23-1.17.27-2.39.12-3.61ZM555.3,172.07c1.36,1.07,2.22,2.61,2.42,4.33l1.04,8.74-23.28,2.07c-18.54-21.89-46.46-33.79-74.31-29.74-6.7.97-13.17,2.85-19.31,5.51.88-6.66,1.44-13.56,1.59-20.16.07-3.33.04-6.01-.08-8.25,21.31-1.15,42.58-2.19,63.57-3.08l25.37,7.79c4.27,8.73,8.17,17.7,11.64,26.91.08.2.24.36.45.42l7.04,2.13c.07.23.19.44.38.59l3.49,2.76ZM549.37,213.55l-41.65,2.41c-.23-14.56-6.51-28.49-17.36-38.39-10.76-9.82-24.83-14.67-38.59-13.28-13.12,1.32-25.55,8.33-34.1,19.23-8.74,11.14-12.64,24.89-11.03,38.85l-84.83,1.09c-.16-1.59-.47-4.7-.83-8.81l75.92-1.62c.28,0,.53-.18.64-.45,10.88-29.01,35.34-49.61,63.83-53.74,36.75-5.33,73.58,17.54,88.15,54.51-.05.07-.09.14-.13.21ZM151.83,166.86c-15.29-4.83-32.77-1.48-45.63,8.73-14.86,11.8-21.87,31.61-18.16,50.9l-33.39-5.43h26.07c.38,0,.69-.3.69-.68.61-31.93,23.93-58.75,54.24-62.39,15.77-1.89,32.28,3.06,45.28,13.58,4.32,3.49,8.11,7.45,11.35,11.77.53.71,1.04,1.44,1.54,2.17,6.22,9.09,10.06,19.66,11.09,30.97.03.36.33.63.69.63,0,0,0,0,.01,0l113.97-2.43c.35,4.05.66,7.15.83,8.8l-132.3,1.7c1.55-26.74-13.56-51.13-36.29-58.31ZM68.68,149.89c6.91-2.47,14.11-4.27,21.38-5.35.02,0,.04,0,.06,0,.03,0,.05,0,.08,0l21.14,4.17c.28.06.32.28.32.38,0,.09-.01.32-.28.4-15.05,4.52-30.54,7.53-46.04,8.95-5.02.46-10.12.76-15.16.89-.27.01-.36-.2-.39-.29-.03-.09-.06-.32.19-.47,5.94-3.46,12.23-6.39,18.7-8.7ZM174.95,135.22c.06.02.11.06.17.06.02,0,.03,0,.05,0l21.99-1.59c-.95,2.83-1.8,5.72-2.51,8.62-.36,1.46-.72,3.08-1.06,4.89-26.01.64-52.99.97-80.81,1-.25-.42-.65-.74-1.17-.84l-18.43-3.64c7.18-1.36,14.45-2.58,21.66-3.61,19.81-2.84,40.02-4.48,60.11-4.89ZM442.05,142.77c-.15,6.56-.85,14.24-1.72,20.86-14.96,6.86-27.8,18.46-36.75,33.29l-83.62,4.59c-.87-12.85-1.56-28.67-.86-41.01.42-7.27,1.25-13.92,1.85-18.04l2.12-.16c17.14-1.27,45.82-3.4,85.22-5.77,4.32-.26,8.65-.5,12.98-.75-1.14.12-2.19.27-3.13.44-3.01.56-4.28,1.24-4.27,2.28.04,2.38,8.71,2.63,12.31,2.63.49,0,.89,0,1.15,0,3.44-.06,6.67-.34,9.1-.79,3.01-.56,4.28-1.24,4.27-2.28-.04-2.69-11.05-2.66-13.4-2.62,4.89-.28,9.78-.55,14.68-.81.12,2.2.15,4.84.08,8.14ZM193.49,180.62c-.84-15.19.03-25.06,1.26-32.06,32.07-.8,62.67-2.06,91.64-3.78-2.73.55-3.92,1.21-3.9,2.2.02,1.04,1.31,1.67,4.34,2.13,2.14.33,4.89.5,7.84.5.42,0,.85,0,1.27-.01,3.43-.06,6.67-.34,9.1-.79,3.01-.56,4.28-1.24,4.27-2.28-.03-1.91-5.58-2.44-9.65-2.58,5.4-.35,10.77-.72,16.05-1.1l3.81-.28c-.6,4.17-1.41,10.71-1.81,17.85-.71,12.4-.02,28.27.86,41.16l-113.61,6.23c-2.01-9.09-5.86-17.54-11.32-24.95-.05-.75-.11-1.5-.15-2.25ZM202.75,133.28c.06.67.33,2,1.47,3.05,1.08.99,2.34,1.2,3.18,1.2.44,0,.76-.05.89-.08l.17-.03,6.16-4.99,108.54-7.86c-1.14,4.39-2.13,8.88-2.93,13.37,0,.03-.22,1.23-.52,3.23l-4.11.3c-37.27,2.72-77.63,4.62-120.61,5.7.32-1.66.66-3.16.99-4.52.75-3.05,1.64-6.09,2.66-9.06l4.1-.3ZM209.21,120.2c1.73-2.67,6.74-2.79,11.16-2.9.63-.01,1.32-.03,2.03-.03.86,0,1.73.02,2.56.1-1.1,3.88-2.05,7.89-2.84,11.94-3.79,1.15-9.36.27-11.97-2.97-1.01-1.26-2.35-3.97-.94-6.14ZM226.53,116.97c.06-.19.03-.4-.08-.57-.11-.17-.28-.28-.48-.31-1.81-.27-3.92-.22-5.62-.18-2.8.07-5.81.14-8.26.86,3.21-1.82,6.44-3.61,9.67-5.35,16.54-8.9,31.67-15.89,39.59-19.17,13.35-5.53,32.78-9.18,57.77-10.84-1.92,10.02-5.31,27.78-7.42,39.02l-87.62,6.34c.72-3.32,1.54-6.6,2.46-9.79ZM208.44,126.3l-1.52,1.7-15.59,1.13c5.66-3.56,11.42-7.01,17.23-10.35-.19.21-.37.43-.52.67-1.39,2.14-.85,4.83.39,6.86ZM209.29,127.44c1.36,1.57,3.26,2.63,5.33,3.21l-6.75,5.47c-.45.06-1.71.12-2.71-.8-.77-.71-.97-1.61-1.02-2.1l5.15-5.78ZM307.79,146.56c-.92.58-4.91,1.54-11.86,1.65-6.95.11-10.98-.71-11.91-1.26.92-.58,4.9-1.54,11.86-1.65,6.97-.11,10.98.71,11.91,1.26ZM318.66,202.97c.27,3.79.54,7.28.8,10.32l-113.23,2.42c-.22-2.2-.55-4.38-.98-6.52l113.41-6.22ZM320.05,202.9l82.67-4.53c-2.43,4.19-4.55,8.63-6.32,13.29l-75.54,1.61c-.26-3.05-.54-6.56-.81-10.37ZM427.25,136.83c6.94-.13,10.97.71,11.91,1.26-.92.58-4.91,1.54-11.86,1.65-6.97.11-10.98-.71-11.91-1.26.92-.58,4.91-1.54,11.86-1.65ZM408.2,135.15c-39.41,2.37-68.1,4.5-85.24,5.77l-1.81.13c.27-1.79.46-2.85.46-2.88.81-4.57,1.82-9.14,3.01-13.72l111.02-8.03c2.05,2.84,3.66,5.9,4.77,9.12.69,2.01,1.21,4.25,1.48,7.69-11.23.61-22.47,1.24-33.68,1.91ZM436.33,114.99l-1.42-2.09,18.35-1.33c5.41-.39,10.5-2.72,14.34-6.56l12.96-12.95c.38-.38.51-.9.34-1.42-.17-.52-.58-.87-1.12-.96-20.2-3.23-40.79-5.77-61.22-7.55l-1.43-2.31c21.01,1.8,42.1,4.36,62.99,7.7,1.36.22,2.43,1.13,2.85,2.44.42,1.31.1,2.67-.88,3.64l-12.95,12.95c-4.21,4.21-9.79,6.76-15.73,7.19l-17.09,1.24ZM434.07,111.56l-14.7-27.97c20.09,1.78,40.34,4.29,60.21,7.45,0,0,0,0,.01.03l.66-.21-.66.22-12.96,12.95c-3.6,3.6-8.38,5.79-13.46,6.15l-19.1,1.38ZM415.42,79.67l2.14,3.46,15.49,29.48s.04.04.05.06h-.01s1.64,2.43,1.64,2.43l-109.9,7.95,3.93-45.79c7.1-.3,14.55-.46,22.37-.46,11.75,0,24.31.34,37.6,1.03,8.86.46,17.76,1.08,26.68,1.83ZM323.45,123.16l-100.37,7.26c.16-.1.29-.25.33-.44.12-.6.25-1.2.37-1.8l88.54-6.41c.32-.02.57-.25.63-.56,2.16-11.54,5.78-30.44,7.69-40.42.04-.21-.02-.43-.16-.59-.14-.16-.36-.25-.56-.23-25.58,1.65-45.47,5.35-59.11,11.01-7.95,3.3-23.12,10.31-39.71,19.23-11.13,5.98-22.17,12.46-32.84,19.24-.27.17-.39.5-.29.8.09.29.36.48.66.48.02,0,.03,0,.05,0l16.92-1.22-2.09,2.35-25.82,1.87c13.62-9.09,27.86-17.64,42.37-25.44,16.66-8.96,31.91-16.01,39.91-19.33,15.39-6.38,38.25-10.27,67.41-11.61l-3.93,45.82ZM111.78,150.83c.61-.18,1.05-.66,1.21-1.24,27.66-.03,54.48-.36,80.35-.99-1.22,7.07-2.07,16.99-1.23,32.1,0,.07,0,.13.01.2-3.01-3.78-6.45-7.28-10.31-10.4-13.29-10.76-30.18-15.82-46.32-13.88-13.16,1.58-25.02,7.44-34.38,16.15l-18.76-15.11c9.91-1.64,19.76-3.92,29.42-6.83ZM545.33,122.82c.39,2.88.57,5.77.54,8.6-.04,3.49-.4,6.93-1.09,10.23l-37.4-11.48-8.94-8.93,46.89,1.58ZM549.66,142.31c.73,5.74.98,11.64,1.23,17.35.11,2.48.23,5.04.38,7.57l-6.16-1.87c-3.3-8.73-6.97-17.25-10.99-25.54l10.98,3.37c.07.02.14.03.2.03.12,0,.24-.03.35-.09.17-.1.29-.26.33-.45.81-3.62,1.24-7.4,1.28-11.25.01-.89,0-1.78-.04-2.68.94,4.46,1.86,9.02,2.44,13.56ZM541.58,115.55l-8.42-4.24-17.95-23.05,1.45-4.57c3.25,3.55,6.44,7.22,9.48,10.94,5.27,6.43,10.44,13.46,15.43,20.92ZM514.84,81.36s-.04.1-.06.15l-2.1,6.63c-.12.39-.05.81.2,1.13l18.51,23.77c.11.14.25.26.42.34l10.17,5.12c.57.29,1.13.67,1.66,1.14h0c.11.18.27.32.44.41.42.42.76.89,1.07,1.38l-21.15-.71c-6.75-11.71-14.23-22.9-22.44-33.47-3-3.86-6.14-7.66-9.32-11.36,8.02.73,16.04,1.5,24.07,2.31l-1.48,3.17ZM201.74,99.86c16.98-8.51,34.64-16.15,52.49-22.71l1.89,3.78c-16.21,6.58-32.19,14.18-47.5,22.6-12.06,6.63-23.95,13.91-35.35,21.63l-16.58.27c14.65-9.32,29.78-17.91,45.05-25.56ZM82.45,138.72c17.02-4.52,34.5-8.04,51.95-10.48l39.27-.63c.24,0,.47-.08.67-.21,11.43-7.75,23.36-15.06,35.46-21.72,15.61-8.59,31.92-16.32,48.47-22.97.32-.13.57-.38.69-.7s.1-.68-.05-.98l-2.06-4.13c8.94-2.38,18.12-4.22,27.32-5.47,3.49-.47,9.05-1.13,15.69-1.57,48.8-3.21,99.39-.66,99.9-.63,29.65,1.54,59.99,3.71,90.51,6.48,3.49,4.02,6.93,8.18,10.2,12.39,8,10.3,15.29,21.18,21.9,32.57l-25.64-.86c-.29,0-.55.16-.66.42-.11.26-.06.57.15.77l9.19,9.18c-20.53.88-41.32,1.89-62.14,3.01-.28-3.6-.82-5.95-1.55-8.07-1.06-3.1-2.58-6.05-4.48-8.79l16.29-1.18c6.27-.45,12.17-3.15,16.61-7.59l12.95-12.95c1.33-1.33,1.79-3.26,1.22-5.05-.58-1.79-2.1-3.09-3.96-3.39-30.37-4.85-61.17-8.11-91.54-9.69-59.48-3.09-104.23.78-129.37,11.2-8.03,3.33-23.33,10.4-40.04,19.39-15.23,8.19-30.16,17.2-44.4,26.79-20.17.41-40.47,2.05-60.36,4.9-8.29,1.19-16.65,2.61-24.86,4.21l.04.22c-7.36,1.09-14.63,2.91-21.62,5.41-4.51,1.61-8.94,3.54-13.22,5.72l-9.71-3.92c12.18-4.42,24.67-8.35,37.18-11.67ZM41.77,153.4c.79,6.28,1.3,12.48,1.48,18.46.09,3.06.04,5.59-1.53,7.96-1.92,2.91-5.19,4.21-7.9,4.79.21-2.91.55-5.82,1.03-8.68,1.31-7.75,3.65-15.32,6.92-22.54ZM34.2,187.05c3.21-.67,7.16-2.23,9.57-5.87,2.13-3.22,2.02-6.64,1.94-9.39-.2-6.6-.78-13.47-1.71-20.42l9.35,3.78c-1.37.72-2.73,1.47-4.07,2.24-.72.42-1.05,1.24-.82,2.04.22.78.91,1.3,1.71,1.3.02,0,.03,0,.05,0,5.07-.13,10.2-.43,15.25-.9,5.02-.46,10.03-1.1,15.04-1.89l19.59,15.78c-10.38,10.09-17.46,23.76-19.48,38.99l-43.51,1.87c-2.35-9.07-3.32-18.3-2.9-27.53ZM37.49,215.96l42.95-1.85c-.21,1.84-.34,3.69-.4,5.57h-33.93l-7.94-1.29c-.24-.81-.46-1.62-.68-2.43ZM136.29,257.77c-21.8,0-39.53-17.3-39.53-38.56s17.73-38.56,39.53-38.56,39.53,17.3,39.53,38.56-17.73,38.56-39.53,38.56ZM456.63,257.77c-21.8,0-39.53-17.3-39.53-38.56s17.73-38.56,39.53-38.56,39.53,17.3,39.53,38.56-17.73,38.56-39.53,38.56ZM498.51,222.05c.07-.94.11-1.88.11-2.84,0-22.62-18.84-41.01-41.99-41.01s-41.99,18.4-41.99,41.01c0,3.33.42,6.57,1.19,9.67l-239.6,2.98c1.33-3.99,2.06-8.24,2.06-12.66,0-22.62-18.84-41.01-41.99-41.01s-41.99,18.4-41.99,41.01c0,4.91.89,9.62,2.52,13.99l-28.9-7.48,21.49,3.5c.07.01.13.02.2.02.34,0,.66-.14.89-.39.28-.3.39-.71.3-1.11-4.3-18.92,2.35-38.63,16.92-50.21,12.23-9.71,28.85-12.89,43.37-8.31,22.04,6.96,36.54,30.98,34.49,57.12-.03.34.09.68.33.94s.51.4.91.39l221.22-2.84c.35,0,.69-.16.92-.43s.33-.62.28-.97c-1.94-13.77,1.74-27.4,10.36-38.38,8.14-10.38,19.96-17.05,32.42-18.3,13.07-1.31,26.44,3.3,36.68,12.65,10.66,9.73,16.69,23.53,16.56,37.87,0,.34.14.67.38.9.25.23.58.36.92.34l22.32-1.29-30.37,4.85ZM558.95,190.44c-.88,4.57-2.28,9.04-4.15,13.29-1.25,2.83-2.73,5.57-4.39,8.2-3.51-8.64-8.21-16.51-13.85-23.42l22.35-1.98.13,1.07c.12.97.08,1.93-.09,2.86Z"/>
      <path class="cls-2" d="M351.39,79c-4.8,0-9.59.06-14.23.18-.37,0-.67.31-.68.67l-1.1,39.47c0,.2.07.39.21.52.13.12.3.19.48.19.02,0,.03,0,.05,0l85.21-6.17c.22-.02.43-.14.54-.33.12-.19.13-.43.05-.63l-13.29-31.22c-.1-.24-.33-.4-.59-.42-6.57-.49-13.1-.91-19.41-1.24-13.08-.68-25.61-1.02-37.24-1.02ZM420.27,112.56l-83.47,6.04,1.06-38.04c4.43-.11,8.98-.17,13.54-.17,11.61,0,24.12.34,37.17,1.02,6.17.32,12.55.73,18.96,1.21l12.75,29.94Z"/>
      <path class="cls-2" d="M44.74,203.62c.86,2.52,3.19,4.19,5.79,4.19.17,0,.34,0,.51-.02l17.76-1.5c1.84-.16,3.49-1.13,4.54-2.67,1.07-1.58,1.36-3.53.8-5.35l-1.29-4.26c-.94-3.1-4.11-4.96-7.24-4.22l-17.05,4.03c-1.67.39-3.11,1.49-3.95,3.01-.86,1.55-1.02,3.39-.43,5.13l.57,1.68ZM45.81,197.49c.66-1.19,1.75-2.02,3.06-2.33l17.05-4.03c.35-.08.71-.12,1.06-.12,2.03,0,3.91,1.35,4.53,3.4l1.29,4.26c.43,1.42.2,2.94-.63,4.17-.81,1.19-2.09,1.95-3.51,2.07l-17.76,1.5c-2.17.19-4.16-1.15-4.87-3.23l-.59-1.73c-.44-1.31-.32-2.75.35-3.95Z"/>
      <path class="cls-2" d="M66.87,204c1.96,0,3.01-3.16,3.01-6.14s-1.06-6.14-3.01-6.14-3.01,3.16-3.01,6.14,1.06,6.14,3.01,6.14ZM66.87,193.12c.65,0,1.63,1.89,1.63,4.75s-.98,4.75-1.63,4.75-1.63-1.89-1.63-4.75.98-4.75,1.63-4.75Z"/>
      <path class="cls-2" d="M136.29,188.31c-17.45,0-31.64,13.86-31.64,30.9s14.19,30.9,31.64,30.9,31.64-13.86,31.64-30.9-14.19-30.9-31.64-30.9ZM136.29,248.72c-16.68,0-30.26-13.24-30.26-29.51s13.57-29.51,30.26-29.51,30.26,13.24,30.26,29.51-13.57,29.51-30.26,29.51Z"/>
      <path class="cls-2" d="M136.29,222.81c2.17,0,3.93-1.73,3.93-3.85s-1.76-3.85-3.93-3.85-3.93,1.73-3.93,3.85,1.76,3.85,3.93,3.85ZM136.29,216.49c1.4,0,2.54,1.1,2.54,2.46s-1.14,2.46-2.54,2.46-2.54-1.1-2.54-2.46,1.14-2.46,2.54-2.46Z"/>
      <path class="cls-2" d="M138.61,232.36c-.56-.71-1.41-1.12-2.31-1.12h0c-.91,0-1.75.41-2.32,1.12l-5.94,7.45c-.86,1.08-.86,2.6,0,3.68l1.7,2.15c.41.52,1,.9,1.66,1.05.42.1.86.19,1.32.26,1.01.16,2.05.25,3.08.25.17,0,.33,0,.5,0,1.18.03,2.4-.05,3.57-.24.47-.08.91-.16,1.32-.26.66-.16,1.25-.53,1.66-1.05l1.7-2.15c.86-1.09.86-2.6,0-3.68l-5.94-7.45ZM143.47,242.64l-1.7,2.15c-.22.28-.53.48-.89.56-.39.09-.8.17-1.23.24-1.1.18-2.22.25-3.34.22h-.02s-.02,0-.02,0c-1.12.03-2.24-.05-3.34-.22-.43-.07-.84-.15-1.23-.24-.36-.08-.67-.28-.89-.56l-1.7-2.15c-.46-.58-.46-1.38,0-1.96l5.94-7.45c.3-.38.75-.59,1.23-.59s.93.22,1.23.59l5.94,7.45c.46.57.46,1.38,0,1.96Z"/>
      <path class="cls-2" d="M163.49,221.06l-1.52-2.28c-.77-1.15-2.21-1.61-3.51-1.12l-8.92,3.37c-.85.32-1.49,1-1.77,1.86-.28.86-.15,1.79.35,2.55l5.28,7.94c.56.85,1.49,1.33,2.46,1.33.35,0,.7-.06,1.05-.19l2.57-.96c.62-.23,1.16-.68,1.51-1.26.22-.37.44-.76.66-1.18.54-1.06.99-2.18,1.33-3.33.4-1.14.69-2.31.87-3.48.07-.46.12-.91.16-1.34.05-.67-.12-1.35-.49-1.9ZM162.46,224.09c-.17,1.09-.44,2.18-.81,3.24v.03c-.33,1.07-.74,2.12-1.24,3.11-.2.39-.4.75-.61,1.09-.19.32-.47.55-.81.68l-2.57.96c-.69.26-1.45,0-1.86-.6l-5.28-7.94c-.27-.4-.34-.89-.19-1.35.15-.46.49-.82.94-.99l8.92-3.37c.18-.07.37-.1.56-.1.51,0,1,.25,1.3.7l1.52,2.28c.2.3.29.65.26,1.02-.03.4-.08.81-.14,1.24Z"/>
      <path class="cls-2" d="M157.61,204.64l-.07-2.74c-.02-.67-.27-1.32-.7-1.84-.27-.33-.57-.67-.9-1-.83-.86-1.74-1.65-2.72-2.34-.94-.74-1.95-1.4-3.01-1.95-.42-.22-.82-.41-1.22-.58-.62-.27-1.32-.33-1.96-.16l-2.65.7c-1.34.35-2.25,1.57-2.21,2.95l.28,9.53c.03.91.46,1.74,1.18,2.28.52.39,1.14.59,1.77.59.25,0,.5-.03.75-.1l9.22-2.4c1.34-.35,2.25-1.56,2.22-2.94ZM145.82,208.63c-.47.12-.95.02-1.34-.26-.38-.29-.61-.73-.63-1.21l-.28-9.53c-.02-.74.46-1.38,1.17-1.57l2.65-.7c.13-.03.27-.05.4-.05.22,0,.44.05.65.14.36.16.74.34,1.13.54.98.52,1.93,1.13,2.8,1.82l.03.02c.91.65,1.76,1.38,2.53,2.18.3.31.58.63.84.93.24.28.37.62.38.98l.07,2.74c.02.74-.47,1.38-1.18,1.56l-9.23,2.4Z"/>
      <path class="cls-2" d="M130.23,207.28l.26-9.53c.04-1.39-.87-2.6-2.21-2.95l-2.65-.69c-.64-.17-1.34-.11-1.96.16-.39.17-.8.37-1.22.59-1.06.56-2.07,1.22-3,1.96-.98.7-1.89,1.49-2.71,2.34-.33.34-.63.68-.9,1.01-.43.52-.68,1.17-.7,1.84l-.07,2.74c-.03,1.39.88,2.59,2.22,2.94l9.23,2.38c.25.06.5.09.74.09.64,0,1.26-.2,1.78-.6.72-.55,1.15-1.38,1.18-2.28ZM128.22,208.45c-.38.29-.88.39-1.34.27l-9.23-2.38c-.71-.18-1.2-.83-1.18-1.56l.07-2.74c0-.36.14-.7.37-.99.25-.3.53-.62.84-.93.77-.8,1.62-1.53,2.53-2.18l.03-.02c.87-.69,1.81-1.31,2.8-1.83.39-.2.76-.38,1.13-.54.21-.09.43-.14.65-.14.13,0,.27.02.4.05l2.65.69c.71.19,1.2.83,1.17,1.57l-.26,9.53c-.01.48-.24.92-.63,1.21Z"/>
      <path class="cls-2" d="M122.92,221.04l-8.92-3.36c-1.3-.49-2.74-.02-3.51,1.13l-1.52,2.28c-.37.56-.54,1.23-.49,1.91.04.43.09.87.16,1.34.18,1.18.48,2.35.87,3.48.34,1.15.78,2.27,1.33,3.33.22.42.44.81.66,1.18.35.58.89,1.03,1.51,1.26l2.57.96c.34.13.7.19,1.04.19.97,0,1.9-.48,2.46-1.33l5.26-7.95c.5-.76.63-1.68.35-2.55s-.93-1.54-1.77-1.86ZM123.19,224.68l-5.26,7.95c-.41.61-1.17.86-1.86.61l-2.57-.96c-.34-.13-.62-.36-.81-.68-.2-.34-.41-.7-.61-1.09-.51-.99-.92-2.03-1.24-3.1v-.04c-.38-1.05-.66-2.14-.83-3.24-.07-.43-.11-.85-.15-1.24-.03-.37.06-.72.26-1.02l1.52-2.28c.3-.45.79-.7,1.31-.7.19,0,.37.03.56.1l8.92,3.36c.45.17.79.53.94.99.15.46.08.95-.18,1.35Z"/>
      <path class="cls-2" d="M456.63,188.31c-17.45,0-31.64,13.86-31.64,30.9s14.19,30.9,31.64,30.9,31.64-13.86,31.64-30.9-14.19-30.9-31.64-30.9ZM456.63,248.72c-16.68,0-30.26-13.24-30.26-29.51s13.57-29.51,30.26-29.51,30.26,13.24,30.26,29.51-13.57,29.51-30.26,29.51Z"/>
      <path class="cls-2" d="M456.63,222.81c2.17,0,3.93-1.73,3.93-3.85s-1.76-3.85-3.93-3.85-3.93,1.73-3.93,3.85,1.76,3.85,3.93,3.85ZM456.63,216.49c1.4,0,2.54,1.1,2.54,2.46s-1.14,2.46-2.54,2.46-2.54-1.1-2.54-2.46,1.14-2.46,2.54-2.46Z"/>
      <path class="cls-2" d="M458.94,232.36c-1.13-1.42-3.5-1.42-4.63,0l-5.94,7.45c-.86,1.08-.87,2.6,0,3.68l1.7,2.15c.41.52,1,.9,1.66,1.05.42.1.86.19,1.32.26,1.01.16,2.05.25,3.08.25.17,0,.33,0,.5,0,1.2.03,2.4-.05,3.58-.24.47-.08.91-.16,1.32-.26.66-.16,1.25-.53,1.66-1.05l1.7-2.15c.86-1.09.86-2.6,0-3.68l-5.94-7.45ZM463.8,242.64l-1.7,2.15c-.22.28-.53.48-.89.56-.39.09-.8.17-1.23.24-1.1.18-2.22.25-3.34.22h-.02s-.02,0-.02,0c-1.12.03-2.24-.05-3.34-.22-.43-.07-.84-.15-1.23-.24-.36-.08-.67-.28-.89-.56l-1.7-2.15c-.46-.58-.46-1.38,0-1.96l5.94-7.45c.3-.38.75-.59,1.23-.59s.93.22,1.23.59l5.94,7.45c.46.57.46,1.38,0,1.96Z"/>
      <path class="cls-2" d="M468.11,222.89c-.28.86-.15,1.79.35,2.55l5.28,7.94c.56.85,1.49,1.33,2.46,1.33.35,0,.7-.06,1.05-.19l2.57-.96c.62-.23,1.16-.68,1.51-1.26.22-.37.44-.76.66-1.18.54-1.06.99-2.18,1.32-3.33.4-1.13.69-2.3.87-3.48.07-.47.12-.91.16-1.34.05-.67-.12-1.35-.49-1.9l-1.52-2.28c-.77-1.15-2.21-1.61-3.51-1.12l-8.92,3.37c-.85.32-1.49,1-1.77,1.86ZM479.28,218.96c.18-.07.37-.1.56-.1.51,0,1,.25,1.3.7l1.52,2.28c.2.3.29.65.26,1.02-.03.4-.08.81-.14,1.24-.17,1.1-.44,2.19-.81,3.24v.04c-.32,1.07-.74,2.12-1.24,3.1-.2.39-.4.75-.61,1.09-.19.32-.47.55-.81.68l-2.57.96c-.69.26-1.45,0-1.86-.6l-5.28-7.94c-.27-.4-.34-.89-.19-1.35.15-.46.49-.82.94-.99l8.92-3.37Z"/>
      <path class="cls-2" d="M477.95,204.64l-.07-2.74c-.02-.67-.27-1.32-.7-1.84-.27-.33-.57-.67-.9-1-.83-.86-1.74-1.65-2.72-2.34-.94-.74-1.95-1.4-3.01-1.95-.42-.22-.82-.41-1.22-.58-.62-.27-1.31-.33-1.96-.16l-2.65.7c-1.34.35-2.25,1.57-2.21,2.95l.28,9.53c.03.91.46,1.74,1.18,2.28.52.39,1.14.59,1.77.59.25,0,.5-.03.75-.1l9.22-2.4c1.34-.35,2.25-1.56,2.22-2.94ZM466.16,208.63c-.47.12-.95.02-1.34-.26-.38-.29-.61-.73-.63-1.21l-.28-9.53c-.02-.74.46-1.38,1.17-1.57l2.65-.7c.13-.04.27-.05.4-.05.22,0,.44.05.65.14.36.16.74.34,1.13.54.98.52,1.93,1.13,2.8,1.82l.03.02c.91.65,1.76,1.38,2.53,2.18.3.31.58.63.84.93.24.28.37.62.38.98l.07,2.74c.02.74-.47,1.38-1.18,1.56l-9.22,2.4Z"/>
      <path class="cls-2" d="M450.57,207.28l.26-9.53c.04-1.38-.87-2.6-2.21-2.95l-2.65-.69c-.64-.17-1.34-.11-1.96.16-.39.17-.8.37-1.22.59-1.06.56-2.07,1.22-3,1.96-.98.7-1.89,1.49-2.71,2.34-.33.34-.63.68-.9,1.01-.43.52-.68,1.17-.7,1.84l-.07,2.74c-.03,1.39.88,2.59,2.22,2.94l9.23,2.38c.25.06.5.09.74.09.64,0,1.26-.2,1.78-.6.72-.55,1.15-1.38,1.18-2.28ZM448.55,208.45c-.38.29-.87.39-1.34.27l-9.23-2.38c-.71-.18-1.2-.83-1.18-1.56l.07-2.74c0-.36.14-.7.38-.99.25-.3.53-.62.83-.93.77-.8,1.62-1.53,2.53-2.18l.03-.02c.87-.69,1.81-1.31,2.8-1.83.39-.2.77-.38,1.13-.54.21-.09.43-.14.65-.14.13,0,.27.02.4.05l2.65.69c.71.19,1.2.83,1.18,1.57l-.26,9.53c-.01.48-.24.92-.63,1.21Z"/>
      <path class="cls-2" d="M443.25,221.04l-8.92-3.36c-1.3-.49-2.74-.02-3.51,1.13l-1.52,2.28c-.37.55-.54,1.23-.49,1.91.03.43.08.87.16,1.34.18,1.18.47,2.35.87,3.48.34,1.14.78,2.26,1.33,3.33.22.42.44.81.66,1.18.35.58.89,1.03,1.51,1.26l2.57.96c.34.13.7.19,1.04.19.97,0,1.9-.48,2.46-1.33l5.26-7.95c.5-.76.63-1.68.35-2.55-.28-.86-.92-1.54-1.77-1.86ZM443.52,224.68l-5.26,7.95c-.41.61-1.17.86-1.86.61l-2.57-.96c-.33-.12-.62-.36-.81-.68-.21-.34-.41-.7-.61-1.09-.51-.99-.93-2.04-1.24-3.1v-.04c-.38-1.06-.66-2.15-.83-3.24-.07-.43-.11-.85-.15-1.24-.03-.37.06-.72.26-1.02l1.52-2.28c.3-.45.79-.7,1.31-.7.19,0,.37.03.56.1l8.92,3.36c.45.17.79.53.94.99s.08.95-.18,1.35Z"/>
    </g>
  </g>
</svg>