<?xml version="1.0" encoding="UTF-8"?>
<svg id="Layer_2" data-name="Layer 2" xmlns="http://www.w3.org/2000/svg" viewBox="0 0 593.22 326">
  <defs>
    <style>
      .cls-1 {
        fill: none;
      }

      .cls-2 {
        fill: #575756;
      }
    </style>
  </defs>
  <g id="_ÎÓÈ_1" data-name="—ÎÓÈ_1">
    <rect class="cls-1" width="593.22" height="326"/>
    <g>
      <path class="cls-2" d="M520.64,183.22c-.23-2.45-.63-4.92-1.18-7.32-.53-2.3-1.85-4.4-3.73-5.89-1.33-1.05-2.57-2.22-3.69-3.48-6.54-7.32-7.83-16.26-8.02-20.94,0-.09-.02-.18-.04-.26-.67-2.39-1.54-4.73-2.6-6.97-.72-1.51-1.54-3.01-2.43-4.43-.2-.32-.4-.63-.61-.95-.35-.52-.71-1.03-1.08-1.53-3.18-6.61-7.1-12.8-11.7-18.42-3.02-3.7-6.38-7.18-9.98-10.39l3.49-5.82c.19-.31.22-.7.08-1.04-.14-.34-.43-.59-.79-.68-4.84-1.2-9.8-2.35-14.73-3.42-36.51-7.9-66.19-10.1-80.63-10.71-35.65-1.5-72.89,1.8-110.7,9.82-.38.08-.69.34-.83.7-.02.05,0,.1-.02.14-15.71,5.86-31.41,12.34-46.67,19.27-15.31,6.96-30.57,14.57-45.38,22.6-.45.07-.89.15-1.34.22-5.16.78-10.43,1.2-15.65,1.25-.05,0-.09,0-.14,0-15.36,2.02-30.52,5.73-45.06,11.04-15.29,5.58-29.95,12.94-43.57,21.88-.27.18-.45.46-.51.77-.11.66-.22,1.35-.32,2.04-.05.37.08.75.35,1.01,0,0,.02.02.03.03-.79,5.81-1.06,11.7-.76,17.52.13,2.61.4,5.28.76,7.93-.29.25-.44.64-.38,1.03.86,5.89,2.29,11.75,4.24,17.41,1.29,3.73,4.66,6.3,8.59,6.53l19.03,1.13,31.08,6.3c6.26,9.42,17.12,15.66,29.45,15.66s22.51-5.87,28.86-14.8l215.78-1.58c6.17,9.87,17.3,16.48,29.98,16.48,14.07,0,26.22-8.13,31.81-19.83l12.48-5.93c9.41-.1,15.94-2.11,19.86-6.12.65-.66,1.22-1.36,1.94-2.23.87-1.06,1.96-2.39,3.73-4.33,2.18-2.39,4.49-4.7,6.86-6.87,2.65-2.43,4.18-5.74,4.33-9.31.1-2.51.04-5.06-.2-7.56ZM484.55,113.85c3.33,4.07,6.27,8.45,8.86,13.07-.85-.88-1.77-1.78-2.82-2.75-5.64-5.24-12.16-10.03-19.37-14.26l3.68-6.14c3.48,3.12,6.72,6.5,9.65,10.08ZM476.29,96.97l-7.65,12.76c-.16.27-.21.59-.13.89.08.3.27.56.54.71,7.47,4.28,14.19,9.17,19.97,14.54,3.37,3.13,5.51,5.56,7.39,8.4.2.3.39.6.58.9.85,1.35,1.62,2.76,2.3,4.2.99,2.08,1.8,4.25,2.43,6.47.22,5.02,1.64,14.47,8.6,22.25,1.21,1.35,2.55,2.61,3.98,3.75.01.01.02.02.04.03-6.47-.31-18.55-2.31-28.83-11.76-7.02-6.46-10.54-13.93-12.3-19.45l25.08,9.26c.07.03.15.04.23.04.19,0,.38-.09.51-.24.18-.22.19-.53.04-.76-6.19-9.58-13.76-18.09-22.49-25.28-6.02-4.95-12.6-9.27-19.57-12.85-3.18-3.88-5.85-8.13-7.95-12.65-1.14-2.46-2.11-5.01-2.91-7.61,5.47.99,11.15,2.11,17.01,3.38,4.39.95,8.81,1.97,13.14,3.03ZM479.92,217.25c.24-13.03-4.3-25.23-12.55-33.62-1.73-1.76-3.61-3.32-5.6-4.69,1.29-1.01,3.73-2.86,6.72-5.1,13.84,7.56,24.13,21.93,26.93,38.98l-9.39,4.46c-1.9.08-3.93.07-6.12-.03ZM399.43,222.34h-194.84c1.41-13.89-2.57-27.12-11.02-36.47-7.71-8.53-18.32-13.09-29.88-12.8-5.48.13-10.72,1.42-15.48,3.74l-2.95-2.85c5.62-2.84,11.79-4.42,18.08-4.52,11.74-.18,23.27,4.78,31.61,13.63,8.51,9.02,12.86,21.21,11.95,33.45-.01.18.05.36.18.5s.32.22.48.21l186.69-2.5c.32,0,.58-.24.64-.55,4.72-28.96,30.61-49.43,57.73-45.63,5.13.72,10.03,2.31,14.58,4.62-3.68,2.76-5.58,4.24-6.54,5.05-6.32-4.03-13.72-6.11-21.52-5.93-11.85.28-22.55,5.47-30.13,14.6-7.89,9.5-11.34,22.36-9.56,35.46ZM125.61,222.26l-27.77-1.65-8.63-1.75,31.39-.75c.18,0,.35-.08.47-.22.12-.14.18-.31.16-.5-1.16-12.13,2.89-24.35,11.09-33.52,3.4-3.79,7.37-6.92,11.71-9.28l2.94,2.85c-4.15,2.22-7.91,5.23-11.12,8.98-8,9.35-11.7,22.35-10.26,35.83ZM103.05,159.79c6.32-2.79,12.94-4.97,19.69-6.47.03,0,.05,0,.08,0,.02,0,.03,0,.05,0h0l20.12,2.47c.27.03.32.24.33.33.01.09,0,.3-.24.39-13.81,5.27-28.13,9.15-42.58,11.54-4.67.77-9.44,1.4-14.16,1.87-.26.03-.36-.16-.39-.24-.03-.08-.08-.3.14-.45,5.34-3.65,11.04-6.82,16.95-9.43ZM197.67,142.51c.03.12.06.25.09.36.51,1.49,1.94,2.9,4.02,2.9.14,0,.27,0,.41-.02l11.13-.97c-.71,4.19-1.29,8.44-1.68,12.66-.05.51-.08,1.02-.13,1.52-11.26,1.33-22.21,2.71-32.6,4.17l-39.36,5.31-7.07-6.85c3.71-1.2,7.4-2.49,11.05-3.88.73-.28,1.16-.99,1.07-1.77-.1-.78-.69-1.37-1.47-1.47l-16.14-1.98c6.86-1.25,13.84-2.35,20.83-3.25,4.96-.64,8.45-.99,11.83-1.34l2.85-.29c11.26-1.19,23.08-2.91,35.16-5.1ZM415.36,97.66c3.27,6.21,6.55,12.55,9.76,18.89,1.37,2.7,2.83,5.6,4.05,8.04l-98,8.58c1.66-13.52,4.08-27.05,7.2-40.31,6.92-.48,13.67-.72,20.22-.72,21.18,0,40.33,2.31,56.76,5.52ZM417,97.98c9.82,1.98,18.64,4.27,26.3,6.58.85.26,1.54.87,1.89,1.69.35.82.31,1.74-.09,2.53-1.28,2.48-2.78,4.86-4.48,7.07-2.25,2.93-4.84,5.59-7.72,7.91-.46.37-1.01.59-1.61.64l-.72.06c-1.27-2.54-2.83-5.64-4.29-8.51-3.06-6.03-6.18-12.06-9.28-17.97ZM432.02,140.56c-34.04,1.63-68.18,3.9-101.94,6.8-.12.01-.24.02-.36.03.23-2.74.48-5.48.77-8.22.17-1.56.35-3.12.54-4.69l98.78-8.65c1.1,2.19,1.91,3.85,2.14,4.33,1.24,2.68,1.15,6.23.08,10.38ZM472.65,139.05l-14.46-26.14c6.22,3.34,12.12,7.29,17.55,11.76,8.13,6.69,15.23,14.53,21.14,23.32l-24.22-8.95ZM468.36,172.29c-4.83-2.54-10.07-4.27-15.56-5.04-17-2.38-33.53,4.54-44.92,17.04,13.78-17.99,22.23-32.28,25.12-42.47,12.93-.62,25.85-1.15,38.72-1.57,1.67,5.61,5.18,13.48,12.42,20.34-7.13,5.26-12.19,9.02-15.78,11.7ZM195.9,182.17c-8.59-9.11-20.43-14.24-32.58-14.04-6.63.11-13.15,1.81-19.05,4.87l-3.61-3.49,38.45-5.08c10.3-1.44,21.15-2.81,32.31-4.13-1.35,17.78.13,35.85,4.41,53.75.07.29.33.5.63.5h.01l112.72-2.08s0,0,0,0h0s56.16-1.19,56.16-1.19c.18,0,.36-.09.48-.22,6.16-7.05,11.72-13.7,16.72-19.96-4.34,6.52-7.44,14.08-8.87,22.32l-185.43,2.48c.72-12.37-3.76-24.63-12.35-33.74ZM216.87,144.48l-1.06,1.19v.25c.01.45.13,1.99,1.4,3.16,1.02.94,2.2,1.13,2.99,1.13.41,0,.72-.05.85-.08l.16-.03,7.44-6.03c.71.11,1.43.17,2.13.17,1.45,0,2.86-.22,4.06-.65.22-.08.38-.26.42-.49.02-.08.04-.16.05-.24l94.38-8.26c-.18,1.48-.35,2.96-.51,4.43-.3,2.82-.56,5.64-.8,8.47-37.04,3.19-78.06,6.92-115.53,11.31.04-.41.05-.83.09-1.24.4-4.29.98-8.63,1.72-12.9l2.2-.19ZM222.79,139.68c-.95-1.18-2.21-3.73-.89-5.77,1.63-2.52,6.34-2.63,10.5-2.73.6-.01,1.25-.03,1.92-.03.8,0,1.63.02,2.4.1-1.03,3.65-1.93,7.43-2.67,11.23-3.56,1.08-8.8.26-11.26-2.8ZM238.19,130.87c.05-.18.02-.38-.08-.53-.1-.16-.27-.27-.45-.29-1.71-.26-3.69-.21-5.29-.17-4.48.11-9.56.23-11.56,3.32-1.26,1.94-.83,4.35.25,6.23l-17.73,1.55c32.94-21.04,70.61-35.46,109.05-41.73,5.23-.85,10.6-1.57,15.98-2.14l-6.74,33.52-85.27,7.46c.56-2.44,1.17-4.86,1.85-7.21ZM226.98,143.73l-6.35,5.15c-.42.06-1.6.11-2.55-.75-.73-.67-.91-1.51-.96-1.97l4.85-5.43c1.28,1.48,3.07,2.47,5.01,3.02ZM313.72,152.12c-.83.59-4.53,1.69-11.06,2.15-6.52.46-10.34-.11-11.25-.58.83-.59,4.53-1.69,11.06-2.15,6.53-.46,10.34.12,11.25.58ZM291.91,152.04c-1.19.47-1.98,1.04-1.93,1.75.11,1.61,4.37,1.96,8,1.96,2.1,0,4-.12,4.77-.17,2.1-.15,12.58-1.01,12.4-3.55-.06-.91-1.19-1.44-3.71-1.73,5.69-.5,11.31-.99,16.85-1.46-1.65,20.7-1.6,41.62.18,62.36l-111.49,2.05c-4.17-17.69-5.56-35.54-4.2-53.1,25.51-2.99,52.69-5.68,79.14-8.1ZM385.03,209.99l-55.25,1.17c-1.79-20.76-1.85-41.72-.18-62.44.19-.02.39-.03.59-.05,23.18-1.99,46.54-3.68,69.92-5.08-1.2.47-1.99,1.04-1.94,1.75.11,1.61,4.37,1.96,8,1.96,2.1,0,4-.12,4.77-.17,2.1-.15,12.58-1.01,12.4-3.55-.04-.52-.42-.91-1.2-1.21,3.17-.16,6.33-.32,9.5-.47-5.64,18.95-30.16,49.25-46.61,68.1ZM421.91,143.66c-.83.59-4.53,1.69-11.06,2.15-6.53.46-10.34-.11-11.25-.58.83-.59,4.53-1.69,11.06-2.15,6.53-.46,10.34.12,11.25.58ZM329.84,133.28l-94.25,8.25c.14-.71.3-1.41.46-2.11l86.65-7.58,7.29-36.22-.88.09c-5.7.59-11.4,1.34-16.94,2.25-39.12,6.39-77.45,21.17-110.85,42.76-.38.25-.51.59-.38,1.02.12.43.43.67.95.67h.02l18.23-1.6-2,2.24-16.05,1.4c-1.71.15-2.74-.99-3.09-2.01-.35-1.02-.24-2.53,1.2-3.46,33.64-21.74,72.24-36.63,111.64-43.07,8.61-1.41,17.01-2.37,25.18-2.98-3.11,13.27-5.52,26.8-7.17,40.33ZM225.34,112.1c15.2-6.91,30.83-13.37,46.49-19.21l1.55,2.23c-11.54,3.49-22.75,7.75-33.36,12.66-8.3,3.85-14.82,7.43-20.58,10.59-10.05,5.52-17.99,9.88-30.28,13.08-1.83.48-3.69.91-5.58,1.29,13.67-7.31,27.68-14.25,41.76-20.65ZM118.02,148.2c14.36-5.24,29.33-8.92,44.5-10.91,5.31-.05,10.66-.48,15.9-1.28,3.83-.58,7.64-1.36,11.32-2.32,12.56-3.27,20.61-7.7,30.81-13.29,5.72-3.14,12.21-6.71,20.44-10.52,10.97-5.08,22.6-9.45,34.57-13,.35-.1.64-.37.76-.72.12-.35.07-.74-.14-1.04l-1.68-2.43c37.03-7.71,73.5-10.88,108.42-9.41,11.84.5,34,2.08,61.79,7.02.85,2.88,1.9,5.71,3.16,8.42,2.15,4.63,4.9,8.99,8.16,12.96l15.09,27.28c-12.56.42-25.16.93-37.77,1.53,1.09-4.49,1.04-8.14-.22-10.87-.21-.46-.94-1.93-1.92-3.91l.21-.02c.85-.07,1.65-.39,2.31-.93,2.96-2.38,5.63-5.12,7.94-8.13,1.74-2.27,3.29-4.72,4.6-7.27.58-1.14.63-2.46.13-3.64-.5-1.18-1.49-2.06-2.71-2.43-7.96-2.4-17.18-4.78-27.45-6.82-.08-.15-.16-.3-.23-.45l-.55.29c-27.94-5.45-63.68-8.26-103.82-1.71-39.57,6.46-78.35,21.42-112.14,43.26-1.31.85-1.87,2.1-1.94,3.32-12.08,2.2-23.91,3.92-35.17,5.11l-2.84.29c-3.38.35-6.88.7-11.86,1.34-8.4,1.08-16.8,2.43-24.97,4.01v.06c-.07,0-.16,0-.24.01-6.83,1.52-13.54,3.73-19.93,6.56-4.42,1.95-8.72,4.22-12.84,6.75l-3.7-2.26c10.24-5.85,20.97-10.84,32.04-14.88ZM76.91,175.99c2.51,3.49,4.2,7.51,5.04,11.93.27,1.45-.16,2.97-1.17,4.05-.67.72-1.4,1.41-2.17,2.03-1.28,1.04-2.68,1.9-4.17,2.61-.33-2.47-.56-4.95-.69-7.38-.27-5.4-.06-10.86.61-16.26.91.96,1.78,1.96,2.55,3.02ZM85.8,219.9c-2.99-.18-5.56-2.13-6.54-4.98-1.81-5.25-3.16-10.67-4.01-16.12,1.72-.8,3.33-1.8,4.81-3,.85-.69,1.67-1.45,2.41-2.26,1.5-1.62,2.16-3.89,1.75-6.05-.9-4.76-2.73-9.08-5.43-12.85-1.06-1.48-2.26-2.87-3.59-4.16.05-.31.09-.61.14-.91,3.06-2,6.19-3.91,9.35-5.75l3.76,2.3c-1.04.66-2.08,1.32-3.09,2.01-.65.44-.9,1.24-.63,1.97.25.68.86,1.1,1.57,1.1.06,0,.12,0,.17,0,4.75-.47,9.54-1.1,14.24-1.88,10.23-1.69,20.39-4.14,30.36-7.28l11.99,11.61c-4.33,2.41-8.3,5.55-11.71,9.36-8.29,9.27-12.45,21.55-11.48,33.82l-36.5.87c-.33,0-.61.26-.63.6-.03.33.19.63.52.7l5.28,1.07-2.74-.16ZM165.21,242.98c-18.08,0-32.79-14.34-32.79-31.97s14.71-31.97,32.79-31.97c8.76,0,17,3.33,23.19,9.37,6.19,6.04,9.59,14.06,9.59,22.6,0,17.63-14.71,31.97-32.79,31.97ZM439.83,243.08c-18.08,0-32.79-14.34-32.79-31.97s14.71-31.97,32.79-31.97,32.79,14.34,32.79,31.97-14.71,31.97-32.79,31.97ZM474.93,211.1c0-18.9-15.74-34.29-35.1-34.29s-35.1,15.38-35.1,34.29c0,5.98,1.58,11.6,4.35,16.5l-214.13,1.57c3.39-5.27,5.36-11.5,5.36-18.17,0-9.16-3.65-17.78-10.29-24.25-6.63-6.47-15.44-10.03-24.81-10.03-19.35,0-35.1,15.38-35.1,34.28,0,6.22,1.71,12.06,4.69,17.1l-20.83-4.22,12.87.76s.05,0,.07,0c.32,0,.63-.13.85-.37.24-.25.35-.6.3-.94-1.77-13.33,1.71-26.24,9.56-35.42,6.71-7.85,15.99-12.3,26.13-12.55,10.88-.27,20.85,4.01,28.11,12.04,8.26,9.14,12.01,22.24,10.29,35.93-.04.33.06.66.28.91.22.25.53.39.87.39h197.47c.34,0,.66-.15.88-.41.22-.26.31-.6.26-.93-2.1-12.9,1.13-25.64,8.86-34.95,7.15-8.62,17.24-13.51,28.41-13.77,10.12-.23,19.53,3.55,26.53,10.67,8.05,8.18,12.37,20.23,11.86,33.05-.03.63.46,1.16,1.09,1.2.84.05,1.67.08,2.47.11l-8.68,4.12c1.59-3.91,2.48-8.17,2.48-12.63ZM518.53,190.69c-.12,2.95-1.39,5.69-3.58,7.7-2.42,2.22-4.77,4.58-7,7.02-1.81,1.98-2.92,3.34-3.81,4.42-.71.86-1.22,1.49-1.8,2.08-2.69,2.75-6.88,4.44-12.68,5.1l6.76-3.21c.26-.12.41-.4.37-.69-2.71-17.46-13.11-32.22-27.16-40.12,4.8-3.59,10.7-7.96,15.49-11.5,11.25,10.04,24.41,11.59,30.51,11.71.75.95,1.31,2.04,1.58,3.22.53,2.31.91,4.67,1.13,7.02.23,2.4.29,4.84.19,7.25Z"/>
      <path class="cls-2" d="M432.49,121.4c2.44-2.07,4.62-4.36,6.49-6.8,1.62-2.11,3.06-4.39,4.28-6.75.18-.34.09-.64.03-.78h0c-.06-.15-.23-.42-.59-.53-6.82-2.06-13.81-3.88-20.78-5.43l-1.39-.31,11.34,21.13.62-.52ZM441.89,107.66c-1.14,2.15-2.46,4.22-3.94,6.15-1.66,2.16-3.57,4.2-5.69,6.07l-9.22-17.18c6.33,1.44,12.66,3.11,18.86,4.96Z"/>
      <path class="cls-2" d="M344.19,94.56l-3.63,35.72,83.09-7.27-10-23.61-.34-.07c-17.95-3.42-36.3-5.15-54.56-5.15-4.44,0-9.15.12-13.99.35l-.56.03ZM358.74,95.48c18.06,0,36.21,1.7,53.97,5.07l9.03,21.31-79.72,6.98,3.36-33.03c4.62-.22,9.12-.33,13.37-.33Z"/>
      <path class="cls-2" d="M85.37,211.45c.63,1.84,2.33,3.06,4.22,3.06.12,0,.25,0,.38-.02l12.49-1.06c1.34-.11,2.55-.82,3.31-1.95.78-1.15.99-2.57.59-3.9l-.91-2.99c-.69-2.26-3.01-3.62-5.29-3.08l-11.99,2.83c-1.22.29-2.27,1.09-2.89,2.2-.62,1.13-.74,2.48-.31,3.74l.4,1.18ZM86.42,207.17c.44-.8,1.17-1.35,2.04-1.56l11.99-2.83c.17-.04.34-.05.5-.06-1.47.04-2.24,2.27-2.24,4.47s.79,4.48,2.29,4.48,2.29-2.25,2.29-4.48-.78-4.47-2.28-4.48c.05,0,.1-.02.15-.02,1.36,0,2.61.9,3.03,2.27l.91,2.99c.29.95.14,1.97-.42,2.79-.54.8-1.39,1.3-2.34,1.38l-12.49,1.06c-1.45.12-2.78-.77-3.25-2.16l-.42-1.22c-.3-.87-.21-1.84.23-2.65ZM101,204.01c.25,0,.98,1.09.98,3.17s-.73,3.17-.98,3.17-.98-1.09-.98-3.17.73-3.17.98-3.17Z"/>
      <path class="cls-2" d="M165.21,185.2c-14.57,0-26.42,11.58-26.42,25.81s11.85,25.81,26.42,25.81,26.42-11.58,26.42-25.81-11.85-25.81-26.42-25.81ZM165.21,235.51c-13.85,0-25.12-10.99-25.12-24.5s11.27-24.5,25.12-24.5,25.12,10.99,25.12,24.5-11.27,24.5-25.12,24.5Z"/>
      <path class="cls-2" d="M165.21,214.08c1.85,0,3.35-1.47,3.35-3.28s-1.5-3.28-3.35-3.28-3.35,1.47-3.35,3.28,1.5,3.28,3.35,3.28ZM165.21,208.82c1.13,0,2.04.89,2.04,1.98s-.92,1.98-2.04,1.98-2.04-.89-2.04-1.98.92-1.98,2.04-1.98Z"/>
      <path class="cls-2" d="M167.2,221.92c-.97-1.22-3-1.22-3.98,0l-4.95,6.21c-.74.93-.74,2.23,0,3.16l1.42,1.79c.35.45.86.77,1.43.9.35.08.72.16,1.11.22.98.16,1.99.23,2.99.2.14,0,.28,0,.42,0,.86,0,1.73-.07,2.57-.21.39-.06.76-.14,1.11-.22.56-.13,1.07-.45,1.42-.9l1.42-1.79c.74-.93.74-2.23,0-3.16l-4.95-6.21ZM171.13,230.47l-1.42,1.79c-.18.22-.42.37-.7.44-.32.08-.66.14-1.02.2-.91.15-1.84.21-2.76.18h-.03c-.93.03-1.86-.04-2.76-.18-.36-.06-.7-.13-1.02-.2-.28-.07-.53-.22-.7-.44l-1.42-1.79c-.36-.45-.36-1.08,0-1.54l4.95-6.21c.47-.59,1.46-.59,1.93,0l4.95,6.21c.36.45.36,1.08,0,1.54Z"/>
      <path class="cls-2" d="M187.92,212.51l-1.27-1.9c-.66-.99-1.9-1.38-3.01-.96l-7.42,2.81c-.73.28-1.28.86-1.52,1.6-.24.74-.13,1.54.3,2.18l4.39,6.61c.48.73,1.28,1.14,2.11,1.14.3,0,.6-.05.9-.16l2.14-.8c.54-.2,1-.59,1.29-1.08.18-.31.37-.64.55-.99.45-.88.82-1.82,1.11-2.78.33-.94.57-1.92.72-2.91.06-.39.1-.76.13-1.12.05-.58-.1-1.16-.42-1.63ZM186.92,215.06c-.14.91-.36,1.82-.67,2.69,0,.01,0,.02-.01.03-.26.89-.6,1.76-1.02,2.57-.16.32-.33.62-.5.91-.15.25-.37.43-.63.53l-2.14.8c-.54.2-1.14,0-1.46-.47l-4.39-6.61c-.21-.32-.26-.7-.15-1.06.12-.36.38-.64.74-.78l7.42-2.81c.14-.05.29-.08.44-.08.4,0,.79.2,1.02.55l1.27,1.9c.16.24.23.51.21.8-.03.33-.06.67-.12,1.03Z"/>
      <path class="cls-2" d="M183.04,198.87l-.06-2.28c-.01-.57-.23-1.13-.6-1.58-.23-.27-.48-.56-.75-.84-.69-.72-1.45-1.37-2.27-1.96-.78-.62-1.63-1.17-2.51-1.63-.35-.18-.69-.35-1.02-.49-.53-.23-1.13-.28-1.68-.13l-2.21.58c-1.15.3-1.93,1.34-1.89,2.53l.23,7.93c.02.78.39,1.49,1.01,1.96.45.34.98.51,1.52.51.21,0,.43-.03.64-.08l7.68-2c1.15-.3,1.93-1.34,1.9-2.52ZM173.13,202.13c-.37.09-.75.02-1.05-.21-.3-.23-.48-.57-.49-.95l-.23-7.93c-.02-.58.36-1.08.92-1.23l2.21-.58c.1-.03.21-.04.32-.04.17,0,.35.04.51.11.3.13.61.28.93.45.82.43,1.6.94,2.32,1.51,0,0,.02.01.03.02.76.54,1.46,1.14,2.1,1.81.25.26.48.52.69.77.19.22.29.49.3.77l.06,2.28c.02.58-.36,1.08-.92,1.23l-7.68,2Z"/>
      <path class="cls-2" d="M160.24,201.07l.22-7.93c.03-1.19-.75-2.23-1.9-2.53l-2.21-.58c-.55-.14-1.15-.1-1.68.14-.33.14-.67.31-1.02.49-.88.46-1.72,1.01-2.51,1.64-.82.58-1.58,1.24-2.27,1.96-.27.28-.52.57-.75.84-.37.45-.58,1.01-.6,1.58l-.06,2.28c-.03,1.19.76,2.22,1.91,2.52l7.69,1.98c.21.05.43.08.64.08.54,0,1.08-.18,1.52-.51.62-.47.99-1.18,1.01-1.96ZM158.94,201.04c-.01.38-.19.73-.49.95-.3.23-.68.3-1.05.21l-7.69-1.98c-.56-.14-.94-.65-.93-1.23l.06-2.28c0-.28.11-.55.29-.77.21-.25.44-.51.69-.77.64-.66,1.34-1.27,2.1-1.81,0,0,.02-.01.03-.02.73-.58,1.51-1.09,2.32-1.51.32-.17.63-.32.93-.45.17-.07.34-.11.51-.11.1,0,.21.01.31.04l2.21.58c.56.15.94.65.92,1.23l-.22,7.93Z"/>
      <path class="cls-2" d="M154.1,212.46l-7.43-2.8c-1.11-.42-2.35-.02-3.01.97l-1.27,1.9c-.32.48-.47,1.06-.42,1.64.03.36.07.73.13,1.12.15.99.4,1.96.73,2.91.28.96.66,1.9,1.11,2.78.18.35.36.68.55.99.3.5.76.88,1.3,1.08l2.14.8c.29.11.6.16.89.16.83,0,1.63-.41,2.11-1.14l4.38-6.62c.43-.65.54-1.44.3-2.19s-.79-1.32-1.52-1.6ZM154.24,215.52l-4.38,6.62c-.32.48-.92.68-1.46.47l-2.14-.8c-.27-.1-.49-.28-.64-.53-.17-.28-.34-.58-.51-.91-.42-.82-.77-1.68-1.03-2.57,0-.01,0-.02-.01-.03-.31-.87-.54-1.77-.68-2.69-.06-.36-.09-.7-.12-1.03-.02-.29.05-.57.2-.8l1.27-1.9c.24-.35.62-.55,1.02-.55.15,0,.29.03.44.08l7.43,2.8c.35.13.62.42.74.78.12.36.06.75-.15,1.06Z"/>
      <path class="cls-2" d="M439.83,185.3c-14.57,0-26.42,11.58-26.42,25.81s11.85,25.81,26.42,25.81,26.42-11.58,26.42-25.81-11.85-25.81-26.42-25.81ZM439.83,235.61c-13.85,0-25.12-10.99-25.12-24.5s11.27-24.5,25.12-24.5,25.12,10.99,25.12,24.5-11.27,24.5-25.12,24.5Z"/>
      <path class="cls-2" d="M439.83,214.18c1.85,0,3.35-1.47,3.35-3.28s-1.5-3.28-3.35-3.28-3.35,1.47-3.35,3.28,1.5,3.28,3.35,3.28ZM439.83,208.92c1.13,0,2.04.89,2.04,1.98s-.92,1.98-2.04,1.98-2.04-.89-2.04-1.98.92-1.98,2.04-1.98Z"/>
      <path class="cls-2" d="M441.82,222.01c-.97-1.22-3.01-1.22-3.98,0l-4.95,6.21c-.74.93-.74,2.23,0,3.16l1.42,1.79c.36.45.86.77,1.43.9.35.08.72.16,1.11.22.99.16,1.99.23,2.99.2.14,0,.28,0,.42,0,.86,0,1.72-.07,2.57-.21.39-.06.76-.14,1.11-.22.56-.13,1.07-.45,1.43-.9l1.42-1.79c.74-.93.73-2.23,0-3.16l-4.95-6.21ZM445.75,230.57l-1.42,1.79c-.18.22-.42.37-.7.44-.32.08-.66.14-1.02.2-.91.15-1.84.21-2.76.18h-.04c-.92.02-1.85-.04-2.76-.18-.36-.06-.7-.13-1.02-.2-.28-.07-.52-.22-.7-.44l-1.42-1.79c-.36-.45-.36-1.08,0-1.54l4.95-6.21c.47-.59,1.46-.59,1.93,0l4.95,6.21c.36.45.36,1.08,0,1.54Z"/>
      <path class="cls-2" d="M462.54,212.6l-1.27-1.9c-.66-.99-1.9-1.38-3.01-.96l-7.42,2.81c-.73.27-1.28.86-1.52,1.6s-.13,1.54.3,2.18l4.39,6.61c.48.73,1.28,1.14,2.11,1.14.3,0,.6-.05.9-.16l2.14-.8c.54-.2,1-.58,1.3-1.08.18-.31.37-.64.55-.99.45-.89.83-1.82,1.11-2.78.33-.95.58-1.92.72-2.91.06-.39.1-.76.13-1.12.05-.58-.1-1.16-.42-1.63ZM461.54,215.16c-.14.91-.36,1.81-.67,2.69,0,.01,0,.02-.01.03-.26.89-.6,1.75-1.02,2.57-.16.32-.33.62-.5.91-.15.25-.37.43-.63.53l-2.14.8c-.54.2-1.14,0-1.46-.47l-4.39-6.61c-.21-.32-.26-.7-.15-1.06.12-.36.38-.64.74-.78l7.42-2.81c.14-.05.29-.08.44-.08.4,0,.79.2,1.02.55l1.27,1.9c.16.24.23.51.21.8-.03.33-.06.67-.12,1.03Z"/>
      <path class="cls-2" d="M457.66,198.97l-.06-2.28c-.01-.57-.23-1.13-.6-1.58-.23-.28-.48-.56-.75-.84-.69-.72-1.46-1.38-2.27-1.96-.78-.62-1.63-1.17-2.51-1.63-.35-.18-.69-.35-1.02-.49-.53-.23-1.13-.28-1.68-.13l-2.21.58c-1.15.3-1.93,1.34-1.89,2.53l.23,7.93c.02.78.39,1.49,1.02,1.96.45.33.98.51,1.52.51.21,0,.43-.03.64-.08l7.68-2c1.15-.3,1.93-1.34,1.9-2.53ZM447.75,202.22c-.37.09-.75.02-1.05-.21-.3-.23-.48-.57-.49-.95l-.23-7.93c-.02-.58.36-1.08.92-1.23l2.21-.58c.1-.03.21-.04.32-.04.17,0,.35.04.51.11.3.13.61.28.93.45.82.43,1.6.94,2.32,1.51,0,0,.02.01.03.02.75.53,1.46,1.14,2.1,1.8.25.26.48.52.69.77.19.22.29.49.3.77l.06,2.28c.02.58-.36,1.08-.92,1.23l-7.68,2Z"/>
      <path class="cls-2" d="M434.86,201.17l.22-7.93c.03-1.19-.75-2.23-1.9-2.53l-2.21-.58c-.55-.14-1.15-.1-1.68.14-.33.14-.67.31-1.02.49-.88.46-1.73,1.02-2.51,1.64-.82.58-1.58,1.24-2.27,1.96-.27.28-.52.57-.75.84-.37.44-.58,1.01-.6,1.58l-.06,2.28c-.03,1.19.75,2.23,1.9,2.52l7.69,1.98c.21.05.43.08.64.08.54,0,1.08-.18,1.52-.51.62-.47.99-1.18,1.01-1.96ZM433.56,201.13c-.01.38-.19.72-.49.95-.3.23-.68.3-1.05.21l-7.69-1.98c-.56-.14-.94-.65-.93-1.23l.06-2.28c0-.28.11-.55.29-.78.21-.25.44-.51.69-.77.64-.66,1.34-1.27,2.1-1.81,0,0,.02-.01.03-.02.72-.58,1.5-1.09,2.32-1.51.32-.17.63-.32.93-.45.17-.07.34-.11.51-.11.1,0,.21.01.31.04l2.21.58c.56.15.94.65.92,1.23l-.22,7.93Z"/>
      <path class="cls-2" d="M428.72,212.56l-7.43-2.8c-1.11-.42-2.35-.02-3.01.97l-1.27,1.9c-.32.48-.47,1.06-.42,1.63.03.36.07.73.13,1.12.15.98.4,1.96.73,2.91.28.96.66,1.9,1.11,2.78.18.35.36.68.55.98.3.5.76.88,1.3,1.08l2.14.8c.29.11.6.16.89.16.83,0,1.63-.41,2.11-1.14l4.38-6.62c.43-.65.54-1.44.3-2.19-.24-.74-.79-1.32-1.52-1.6ZM428.86,215.62l-4.38,6.62c-.32.48-.92.68-1.46.48l-2.14-.8c-.27-.1-.48-.28-.63-.53-.17-.28-.34-.58-.51-.9-.42-.82-.76-1.68-1.03-2.57,0-.01,0-.02-.01-.03-.31-.87-.54-1.78-.67-2.69-.06-.36-.09-.7-.12-1.03-.02-.29.05-.57.2-.8l1.27-1.9c.24-.35.62-.55,1.02-.55.15,0,.29.03.44.08l7.43,2.8c.35.13.62.42.74.78.12.36.06.75-.15,1.06Z"/>
    </g>
  </g>
</svg>